{
    "asset" : {
        "generator" : "Khronos glTF Blender I/O v1.2.36",
        "version" : "2.0"
    },
    "scene" : 0,
    "scenes" : [
        {
            "name" : "Scene",
            "nodes" : [
                22
            ]
        }
    ],
    "nodes" : [
        {
            "name" : "BezierCurve.007_20",
            "rotation" : [
                0,
                0,
                -0.7071068286895752,
                0.7071068286895752
            ],
            "scale" : [
                0.2060336470603943,
                0.2060336470603943,
                0.2060336470603943
            ],
            "translation" : [
                -0.0010948926210403442,
                0.20105427503585815,
                0.001143813133239746
            ]
        },
        {
            "name" : "BezierCurve.010_21",
            "rotation" : [
                0.36771276593208313,
                0.39984697103500366,
                0.5928906798362732,
                0.5944665670394897
            ],
            "scale" : [
                -0.10491302609443665,
                -0.10491301864385605,
                -0.10491300374269485
            ],
            "translation" : [
                0.0460171140730381,
                0.01927148923277855,
                0.0243398267775774
            ]
        },
        {
            "name" : "BezierCurve.011_22",
            "rotation" : [
                0.47423872351646423,
                0.506081759929657,
                0.5116929411888123,
                0.5070988535881042
            ],
            "scale" : [
                -0.2338779717683792,
                -0.2338779717683792,
                -0.2338779717683792
            ],
            "translation" : [
                0.02250276505947113,
                0.03331238776445389,
                -0.008761020377278328
            ]
        },
        {
            "name" : "BezierCurve.012_23",
            "rotation" : [
                0.3147241473197937,
                0.34631112217903137,
                0.618415117263794,
                0.6313319802284241
            ],
            "scale" : [
                -0.09192640334367752,
                -0.09192639589309692,
                -0.09192639589309692
            ],
            "translation" : [
                0.01636459492146969,
                0.016590189188718796,
                0.057613927870988846
            ]
        },
        {
            "name" : "BezierCurve.013_24",
            "rotation" : [
                0.47423872351646423,
                0.506081759929657,
                0.5116929411888123,
                0.5070988535881042
            ],
            "scale" : [
                -0.2338779717683792,
                -0.2338779717683792,
                -0.2338779717683792
            ],
            "translation" : [
                -0.050886370241642,
                0.03348297253251076,
                0.03818206489086151
            ]
        },
        {
            "name" : "BezierCurve.014_25",
            "rotation" : [
                0.5703197121620178,
                0.6236867308616638,
                0.44407030940055847,
                0.29757675528526306
            ],
            "scale" : [
                -0.2338779717683792,
                -0.2338779717683792,
                -0.23387795686721802
            ],
            "translation" : [
                0.08288712799549103,
                0.03150534629821777,
                0.3118475675582886
            ]
        },
        {
            "name" : "BezierCurve.015_26",
            "rotation" : [
                0.47423872351646423,
                0.506081759929657,
                0.5116929411888123,
                0.5070988535881042
            ],
            "scale" : [
                -0.2338779717683792,
                -0.2338779717683792,
                -0.2338779717683792
            ],
            "translation" : [
                -0.027943160384893417,
                0.027120860293507576,
                -0.052861686795949936
            ]
        },
        {
            "name" : "BezierCurve.016_27",
            "rotation" : [
                0.47423872351646423,
                0.506081759929657,
                0.5116929411888123,
                0.5070988535881042
            ],
            "scale" : [
                -0.2338779717683792,
                -0.2338779717683792,
                -0.2338779717683792
            ],
            "translation" : [
                -0.050579313188791275,
                0.033636488020420074,
                -0.0168413408100605
            ]
        },
        {
            "name" : "BezierCurve.017_28",
            "rotation" : [
                0.5703197121620178,
                0.6236867308616638,
                0.44407030940055847,
                0.29757675528526306
            ],
            "scale" : [
                -0.2338779717683792,
                -0.2338779717683792,
                -0.23387795686721802
            ],
            "translation" : [
                -0.12864544987678528,
                0.029437191784381866,
                0.2233998328447342
            ]
        },
        {
            "mesh" : 0,
            "name" : "Node_13"
        },
        {
            "children" : [
                9
            ],
            "name" : "Cylinder.003_7",
            "scale" : [
                1.3924082517623901,
                0.8522934913635254,
                1.3924082517623901
            ],
            "translation" : [
                0,
                -0.006180865224450827,
                0
            ]
        },
        {
            "mesh" : 1,
            "name" : "Node_18"
        },
        {
            "children" : [
                11
            ],
            "name" : "Icosphere.001_9",
            "rotation" : [
                0.0004340567975305021,
                0.020676974207162857,
                0.00043188853305764496,
                0.9997860193252563
            ],
            "scale" : [
                0.5697977542877197,
                0.5697978138923645,
                0.5697978138923645
            ],
            "translation" : [
                -0.07336606830358505,
                0.01705269142985344,
                -0.02744784951210022
            ]
        },
        {
            "mesh" : 2,
            "name" : "Node_20"
        },
        {
            "children" : [
                13
            ],
            "name" : "Icosphere.002_10",
            "rotation" : [
                -0.001839284785091877,
                -0.07470440864562988,
                -0.001014398760162294,
                0.997203528881073
            ],
            "scale" : [
                0.21171855926513672,
                0.21171855926513672,
                0.2117186039686203
            ],
            "translation" : [
                0.014820635318756104,
                -0.0013416651636362076,
                -0.029469162225723267
            ]
        },
        {
            "mesh" : 3,
            "name" : "Node_16"
        },
        {
            "children" : [
                15
            ],
            "name" : "Icosphere_8",
            "scale" : [
                1.0981521606445312,
                0.715146005153656,
                0.715146005153656
            ],
            "translation" : [
                0.05854542925953865,
                -0.01571102812886238,
                0.056917011737823486
            ]
        },
        {
            "children" : [
                12,
                14,
                16
            ],
            "name" : "OBJECTS_11",
            "translation" : [
                -0.09290532022714615,
                0.01867755874991417,
                0.3017825484275818
            ]
        },
        {
            "name" : "SurfCircle_1",
            "scale" : [
                0.14716334640979767,
                0.14716334640979767,
                0.14716334640979767
            ],
            "translation" : [
                -0.0010948926210403442,
                0.2797713577747345,
                0.001143813133239746
            ]
        },
        {
            "children" : [
                0,
                1,
                2,
                3,
                4,
                5,
                6,
                7,
                8,
                10,
                17,
                18
            ],
            "name" : "GLTF_SceneRootNode",
            "rotation" : [
                0.7071068286895752,
                0,
                0,
                0.7071068286895752
            ]
        },
        {
            "children" : [
                19
            ],
            "name" : "root"
        },
        {
            "children" : [
                20
            ],
            "name" : "RootNode (model correction matrix)"
        },
        {
            "children" : [
                21
            ],
            "name" : "RootNode (gltf orientation matrix)",
            "rotation" : [
                -0.7071067690849304,
                0,
                0,
                0.7071067690849304
            ]
        }
    ],
    "materials" : [
        {
            "doubleSided" : true,
            "emissiveFactor" : [
                0,
                0,
                0
            ],
            "name" : "grass",
            "pbrMetallicRoughness" : {
                "baseColorFactor" : [
                    0.19092899560928345,
                    0.32637500762939453,
                    0.02898859977722168,
                    1
                ],
                "metallicFactor" : 0,
                "roughnessFactor" : 0.6236661672592163
            }
        },
        {
            "doubleSided" : true,
            "emissiveFactor" : [
                0,
                0,
                0
            ],
            "name" : "ROCK",
            "pbrMetallicRoughness" : {
                "baseColorFactor" : [
                    0.17886200547218323,
                    0.17886200547218323,
                    0.17886200547218323,
                    1
                ],
                "metallicFactor" : 0,
                "roughnessFactor" : 0.8342859745025635
            }
        }
    ],
    "meshes" : [
        {
            "name" : "Mesh_4",
            "primitives" : [
                {
                    "attributes" : {
                        "POSITION" : 0,
                        "NORMAL" : 1,
                        "TEXCOORD_0" : 2
                    },
                    "indices" : 3,
                    "material" : 0
                }
            ]
        },
        {
            "name" : "Mesh_6",
            "primitives" : [
                {
                    "attributes" : {
                        "POSITION" : 4,
                        "NORMAL" : 5,
                        "TEXCOORD_0" : 6
                    },
                    "indices" : 7,
                    "material" : 1
                }
            ]
        },
        {
            "name" : "Mesh_7",
            "primitives" : [
                {
                    "attributes" : {
                        "POSITION" : 8,
                        "NORMAL" : 9,
                        "TEXCOORD_0" : 10
                    },
                    "indices" : 7,
                    "material" : 1
                }
            ]
        },
        {
            "name" : "Mesh_5",
            "primitives" : [
                {
                    "attributes" : {
                        "POSITION" : 11,
                        "NORMAL" : 12,
                        "TEXCOORD_0" : 13
                    },
                    "indices" : 14,
                    "material" : 1
                }
            ]
        }
    ],
    "accessors" : [
        {
            "bufferView" : 0,
            "componentType" : 5126,
            "count" : 714,
            "max" : [
                0.38094955682754517,
                0.014321336522698402,
                0.38094955682754517
            ],
            "min" : [
                -0.38094955682754517,
                -0.014321336522698402,
                -0.38094955682754517
            ],
            "type" : "VEC3"
        },
        {
            "bufferView" : 1,
            "componentType" : 5126,
            "count" : 714,
            "type" : "VEC3"
        },
        {
            "bufferView" : 2,
            "componentType" : 5126,
            "count" : 714,
            "type" : "VEC2"
        },
        {
            "bufferView" : 3,
            "componentType" : 5123,
            "count" : 2292,
            "type" : "SCALAR"
        },
        {
            "bufferView" : 4,
            "componentType" : 5126,
            "count" : 2323,
            "max" : [
                0.11913891136646271,
                0.11122341454029083,
                0.10606740415096283
            ],
            "min" : [
                -0.10930662602186203,
                -0.11407188326120377,
                -0.11250445991754532
            ],
            "type" : "VEC3"
        },
        {
            "bufferView" : 5,
            "componentType" : 5126,
            "count" : 2323,
            "type" : "VEC3"
        },
        {
            "bufferView" : 6,
            "componentType" : 5126,
            "count" : 2323,
            "type" : "VEC2"
        },
        {
            "bufferView" : 7,
            "componentType" : 5123,
            "count" : 9216,
            "type" : "SCALAR"
        },
        {
            "bufferView" : 8,
            "componentType" : 5126,
            "count" : 2323,
            "max" : [
                0.11913891136646271,
                0.11122341454029083,
                0.10606740415096283
            ],
            "min" : [
                -0.10930662602186203,
                -0.11407188326120377,
                -0.11250445991754532
            ],
            "type" : "VEC3"
        },
        {
            "bufferView" : 9,
            "componentType" : 5126,
            "count" : 2323,
            "type" : "VEC3"
        },
        {
            "bufferView" : 10,
            "componentType" : 5126,
            "count" : 2323,
            "type" : "VEC2"
        },
        {
            "bufferView" : 11,
            "componentType" : 5126,
            "count" : 1912,
            "max" : [
                0.11379997432231903,
                0.11450310051441193,
                0.10716751962900162
            ],
            "min" : [
                -0.1152869313955307,
                -0.04371917247772217,
                -0.10451537370681763
            ],
            "type" : "VEC3"
        },
        {
            "bufferView" : 12,
            "componentType" : 5126,
            "count" : 1912,
            "type" : "VEC3"
        },
        {
            "bufferView" : 13,
            "componentType" : 5126,
            "count" : 1912,
            "type" : "VEC2"
        },
        {
            "bufferView" : 14,
            "componentType" : 5123,
            "count" : 7488,
            "type" : "SCALAR"
        }
    ],
    "bufferViews" : [
        {
            "buffer" : 0,
            "byteLength" : 8568,
            "byteOffset" : 0
        },
        {
            "buffer" : 0,
            "byteLength" : 8568,
            "byteOffset" : 8568
        },
        {
            "buffer" : 0,
            "byteLength" : 5712,
            "byteOffset" : 17136
        },
        {
            "buffer" : 0,
            "byteLength" : 4584,
            "byteOffset" : 22848
        },
        {
            "buffer" : 0,
            "byteLength" : 27876,
            "byteOffset" : 27432
        },
        {
            "buffer" : 0,
            "byteLength" : 27876,
            "byteOffset" : 55308
        },
        {
            "buffer" : 0,
            "byteLength" : 18584,
            "byteOffset" : 83184
        },
        {
            "buffer" : 0,
            "byteLength" : 18432,
            "byteOffset" : 101768
        },
        {
            "buffer" : 0,
            "byteLength" : 27876,
            "byteOffset" : 120200
        },
        {
            "buffer" : 0,
            "byteLength" : 27876,
            "byteOffset" : 148076
        },
        {
            "buffer" : 0,
            "byteLength" : 18584,
            "byteOffset" : 175952
        },
        {
            "buffer" : 0,
            "byteLength" : 22944,
            "byteOffset" : 194536
        },
        {
            "buffer" : 0,
            "byteLength" : 22944,
            "byteOffset" : 217480
        },
        {
            "buffer" : 0,
            "byteLength" : 15296,
            "byteOffset" : 240424
        },
        {
            "buffer" : 0,
            "byteLength" : 14976,
            "byteOffset" : 255720
        }
    ],
    "buffers" : [
        {
            "byteLength" : 270696,
            "uri" : "untitled.bin"
        }
    ]
}
