{
  "accessors": [
    {
      "bufferView": 2,
      "componentType": 5126,
      "count": 44802,
      "max": [
        0.04127652570605278,
        0.1446692943572998,
        0.041276700794696808
      ],
      "min": [
        -0.04127652570605278,
        0.00099999911617487669,
        -0.041276700794696808
      ],
      "type": "VEC3"
    },
    {
      "bufferView": 2,
      "byteOffset": 537624,
      "componentType": 5126,
      "count": 44802,
      "max": [
        0.99975991249084473,
        1,
        0.99976265430450439
      ],
      "min": [
        -0.99975991249084473,
        -1,
        -0.99976265430450439
      ],
      "type": "VEC3"
    },
    {
      "bufferView": 3,
      "componentType": 5126,
      "count": 44802,
      "max": [
        1,
        0,
        -0,
        -1
      ],
      "min": [
        1,
        0,
        -0,
        -1
      ],
      "type": "VEC4"
    },
    {
      "bufferView": 1,
      "componentType": 5126,
      "count": 44802,
      "max": [
        0,
        0
      ],
      "min": [
        0,
        0
      ],
      "type": "VEC2"
    },
    {
      "bufferView": 0,
      "componentType": 5125,
      "count": 268800,
      "max": [
        44801
      ],
      "min": [
        0
      ],
      "type": "SCALAR"
    },
    {
      "bufferView": 2,
      "byteOffset": 1075248,
      "componentType": 5126,
      "count": 6722,
      "max": [
        0.035879552364349365,
        0.11819141358137131,
        0.035879548639059067
      ],
      "min": [
        -0.035879556089639664,
        0.012110207229852676,
        -0.035879552364349365
      ],
      "type": "VEC3"
    },
    {
      "bufferView": 2,
      "byteOffset": 1155912,
      "componentType": 5126,
      "count": 6722,
      "max": [
        0.99831557273864746,
        1,
        0.99831557273864746
      ],
      "min": [
        -0.99831557273864746,
        -1,
        -0.99831557273864746
      ],
      "type": "VEC3"
    },
    {
      "bufferView": 3,
      "byteOffset": 716832,
      "componentType": 5126,
      "count": 6722,
      "max": [
        1,
        0,
        -0,
        -1
      ],
      "min": [
        1,
        0,
        -0,
        -1
      ],
      "type": "VEC4"
    },
    {
      "bufferView": 1,
      "byteOffset": 358416,
      "componentType": 5126,
      "count": 6722,
      "max": [
        0,
        0
      ],
      "min": [
        0,
        0
      ],
      "type": "VEC2"
    },
    {
      "bufferView": 0,
      "byteOffset": 1075200,
      "componentType": 5125,
      "count": 40320,
      "max": [
        6721
      ],
      "min": [
        0
      ],
      "type": "SCALAR"
    },
    {
      "bufferView": 2,
      "byteOffset": 1236576,
      "componentType": 5126,
      "count": 17555,
      "max": [
        0.041619803756475449,
        0.16726252436637878,
        0.041666869074106216
      ],
      "min": [
        -0.041701957583427429,
        0.11556734889745712,
        -0.041580379009246826
      ],
      "type": "VEC3"
    },
    {
      "bufferView": 2,
      "byteOffset": 1447236,
      "componentType": 5126,
      "count": 17555,
      "max": [
        0.99989700317382812,
        0.99999892711639404,
        0.99999010562896729
      ],
      "min": [
        -0.99973392486572266,
        -1,
        -0.99923455715179443
      ],
      "type": "VEC3"
    },
    {
      "bufferView": 3,
      "byteOffset": 824384,
      "componentType": 5126,
      "count": 17555,
      "max": [
        1,
        0.99999189376831055,
        0.99999672174453735,
        1
      ],
      "min": [
        -0.99999982118606567,
        -0.99999910593032837,
        -0.99999827146530151,
        -1
      ],
      "type": "VEC4"
    },
    {
      "bufferView": 1,
      "byteOffset": 412192,
      "componentType": 5126,
      "count": 17555,
      "max": [
        0.97533893585205078,
        0.98393470048904419
      ],
      "min": [
        0.011888431385159492,
        0.01080696564167738
      ],
      "type": "VEC2"
    },
    {
      "bufferView": 0,
      "byteOffset": 1236480,
      "componentType": 5125,
      "count": 67776,
      "max": [
        17554
      ],
      "min": [
        0
      ],
      "type": "SCALAR"
    },
    {
      "bufferView": 2,
      "byteOffset": 1657896,
      "componentType": 5126,
      "count": 5325,
      "max": [
        0.014783424325287342,
        0.0054968823678791523,
        0.0024711829610168934
      ],
      "min": [
        -0.014783424325287342,
        -0.0082207862287759781,
        -0.18584302067756653
      ],
      "type": "VEC3"
    },
    {
      "bufferView": 2,
      "byteOffset": 1721796,
      "componentType": 5126,
      "count": 5325,
      "max": [
        0.99994552135467529,
        0.99999845027923584,
        0.99999344348907471
      ],
      "min": [
        -0.99994552135467529,
        -0.99999499320983887,
        -0.83452576398849487
      ],
      "type": "VEC3"
    },
    {
      "bufferView": 3,
      "byteOffset": 1105264,
      "componentType": 5126,
      "count": 5325,
      "max": [
        1,
        0,
        -0,
        -1
      ],
      "min": [
        1,
        0,
        -0,
        -1
      ],
      "type": "VEC4"
    },
    {
      "bufferView": 1,
      "byteOffset": 552632,
      "componentType": 5126,
      "count": 5325,
      "max": [
        0.30119085311889648,
        0
      ],
      "min": [
        -0.026003880426287651,
        0
      ],
      "type": "VEC2"
    },
    {
      "bufferView": 0,
      "byteOffset": 1507584,
      "componentType": 5125,
      "count": 29184,
      "max": [
        5324
      ],
      "min": [
        0
      ],
      "type": "SCALAR"
    }
  ],
  "asset": {
    "extras": {
      "author": "derSicking (https://sketchfab.com/dersicking)",
      "license": "CC-BY-4.0 (http://creativecommons.org/licenses/by/4.0/)",
      "source": "https://sketchfab.com/3d-models/latte-macchiato-c01be6a8942446fb9933ef7fd47b69f1",
      "title": "Latte Macchiato"
    },
    "generator": "Sketchfab-6.21.0",
    "version": "2.0"
  },
  "bufferViews": [
    {
      "buffer": 0,
      "byteLength": 1624320,
      "byteOffset": 0,
      "name": "floatBufferViews",
      "target": 34963
    },
    {
      "buffer": 0,
      "byteLength": 595232,
      "byteOffset": 1624320,
      "byteStride": 8,
      "name": "floatBufferViews",
      "target": 34962
    },
    {
      "buffer": 0,
      "byteLength": 1785696,
      "byteOffset": 2219552,
      "byteStride": 12,
      "name": "floatBufferViews",
      "target": 34962
    },
    {
      "buffer": 0,
      "byteLength": 1190464,
      "byteOffset": 4005248,
      "byteStride": 16,
      "name": "floatBufferViews",
      "target": 34962
    }
  ],
  "buffers": [
    {
      "byteLength": 5195712,
      "uri": "scene.bin"
    }
  ],
  "materials": [
    {
      "doubleSided": true,
      "emissiveFactor": [
        0,
        0,
        0
      ],
      "name": "Glass",
      "pbrMetallicRoughness": {
        "baseColorFactor": [
          1,
          1,
          1,
          1
        ],
        "metallicFactor": 1,
        "roughnessFactor": 0
      }
    },
    {
      "doubleSided": true,
      "emissiveFactor": [
        0,
        0,
        0
      ],
      "name": "Liquid",
      "pbrMetallicRoughness": {
        "baseColorFactor": [
          0.512241594656483,
          0.24691812747690672,
          0.047007300758820876,
          1
        ],
        "metallicFactor": 1,
        "roughnessFactor": 1
      }
    },
    {
      "doubleSided": false,
      "name": "Foam",
      "pbrMetallicRoughness": {
        "baseColorFactor": [
          1,
          1,
          1,
          1
        ],
        "metallicFactor": 1,
        "roughnessFactor": 0.87366615853658536
      }
    },
    {
      "doubleSided": true,
      "emissiveFactor": [
        0,
        0,
        0
      ],
      "name": "Stainless_Steel",
      "pbrMetallicRoughness": {
        "baseColorFactor": [
          0.787412,
          0.787412,
          0.787412,
          1
        ],
        "metallicFactor": 1,
        "roughnessFactor": 0.10000000000000001
      }
    }
  ],
  "meshes": [
    {
      "primitives": [
        {
          "attributes": {
            "NORMAL": 1,
            "POSITION": 0,
            "TANGENT": 2,
            "TEXCOORD_0": 3
          },
          "indices": 4,
          "material": 0,
          "mode": 4
        }
      ]
    },
    {
      "primitives": [
        {
          "attributes": {
            "NORMAL": 6,
            "POSITION": 5,
            "TANGENT": 7,
            "TEXCOORD_0": 8
          },
          "indices": 9,
          "material": 1,
          "mode": 4
        }
      ]
    },
    {
      "primitives": [
        {
          "attributes": {
            "NORMAL": 11,
            "POSITION": 10,
            "TANGENT": 12,
            "TEXCOORD_0": 13
          },
          "indices": 14,
          "material": 2,
          "mode": 4
        }
      ]
    },
    {
      "primitives": [
        {
          "attributes": {
            "NORMAL": 16,
            "POSITION": 15,
            "TANGENT": 17,
            "TEXCOORD_0": 18
          },
          "indices": 19,
          "material": 3,
          "mode": 4
        }
      ]
    }
  ],
  "nodes": [
    {
      "children": [
        1
      ],
      "name": "RootNode (gltf orientation matrix)",
      "rotation": [
        -0.70710678118654746,
        -0,
        -0,
        0.70710678118654757
      ]
    },
    {
      "children": [
        2
      ],
      "matrix": [
        1,
        0,
        -1.6081226229577292e-16,
        0,
        0,
        1,
        0,
        0,
        1.6081226229577292e-16,
        0,
        1,
        0,
        -1.508396272470458e-17,
        0.0034247566945850849,
        -0.0011641104938462377,
        1
      ],
      "name": "RootNode (model correction matrix)"
    },
    {
      "children": [
        3
      ],
      "name": "root"
    },
    {
      "children": [
        4,
        6,
        8,
        10
      ],
      "matrix": [
        1,
        0,
        0,
        0,
        0,
        2.2204460492503131e-16,
        1,
        0,
        0,
        -1,
        2.2204460492503131e-16,
        0,
        0,
        0,
        0,
        1
      ],
      "name": "GLTF_SceneRootNode"
    },
    {
      "children": [
        5
      ],
      "name": "Glass_0"
    },
    {
      "mesh": 0,
      "name": ""
    },
    {
      "children": [
        7
      ],
      "name": "Liquid_1"
    },
    {
      "mesh": 1,
      "name": ""
    },
    {
      "children": [
        9
      ],
      "matrix": [
        1,
        0,
        0,
        0,
        0,
        1,
        0,
        0,
        0,
        0,
        1,
        0,
        0,
        9.9999997473787516e-06,
        0,
        1
      ],
      "name": "Foam_2"
    },
    {
      "mesh": 2,
      "name": ""
    },
    {
      "children": [
        11
      ],
      "matrix": [
        0.99997952090461983,
        -2.389578842958151e-10,
        -0.0063998258856854699,
        0,
        -0.0058710039889372737,
        0.39803703840401339,
        -0.91735055860381087,
        0,
        0.0025473679610477354,
        0.91736934549752758,
        0.39802888696413607,
        0,
        0.00035091140307486057,
        0.18212881684303284,
        0.054830357432365417,
        1
      ],
      "name": "Spoon_3"
    },
    {
      "mesh": 3,
      "name": ""
    }
  ],
  "scene": 0,
  "scenes": [
    {
      "name": "OSG_Scene",
      "nodes": [
        0
      ]
    }
  ]
}

