{
    "asset" : {
        "generator" : "Khronos glTF Blender I/O v1.2.36",
        "version" : "2.0"
    },
    "scene" : 0,
    "scenes" : [
        {
            "name" : "Scene",
            "nodes" : [
                8
            ]
        }
    ],
    "nodes" : [
        {
            "mesh" : 0,
            "name" : "bamboo_tree_Leaf_0"
        },
        {
            "mesh" : 1,
            "name" : "bamboo_tree_Leaf_0.001"
        },
        {
            "mesh" : 2,
            "name" : "bamboo_tree_Mf_Grass_0"
        },
        {
            "mesh" : 3,
            "name" : "bamboo_tree_Trunk_0"
        },
        {
            "children" : [
                0,
                1,
                2,
                3
            ],
            "name" : "bamboo_tree"
        },
        {
            "children" : [
                4
            ],
            "name" : "RootNode"
        },
        {
            "children" : [
                5
            ],
            "name" : "Bamboo Tree.fbx",
            "rotation" : [
                0.7071068286895752,
                0,
                0,
                0.7071068286895752
            ]
        },
        {
            "children" : [
                6
            ],
            "name" : "RootNode (model correction matrix)"
        },
        {
            "children" : [
                7
            ],
            "name" : "RootNode (gltf orientation matrix)",
            "rotation" : [
                -0.7071067690849304,
                0,
                0,
                0.7071067690849304
            ],
            "scale" : [
                0.13402312994003296,
                0.13402311503887177,
                0.13402311503887177
            ]
        }
    ],
    "materials" : [
        {
            "doubleSided" : true,
            "emissiveFactor" : [
                0,
                0,
                0
            ],
            "name" : "Leaf",
            "pbrMetallicRoughness" : {
                "baseColorTexture" : {
                    "index" : 0,
                    "texCoord" : 0
                },
                "metallicFactor" : 0,
                "roughnessFactor" : 0.9524317383766174
            }
        },
        {
            "doubleSided" : true,
            "emissiveFactor" : [
                0,
                0,
                0
            ],
            "name" : "Mf_Grass",
            "pbrMetallicRoughness" : {
                "baseColorTexture" : {
                    "index" : 1,
                    "texCoord" : 0
                },
                "metallicFactor" : 0,
                "roughnessFactor" : 0.6000000238418579
            }
        },
        {
            "doubleSided" : true,
            "emissiveFactor" : [
                0,
                0,
                0
            ],
            "name" : "Trunk",
            "normalTexture" : {
                "index" : 2,
                "texCoord" : 1
            },
            "pbrMetallicRoughness" : {
                "baseColorTexture" : {
                    "index" : 3,
                    "texCoord" : 0
                },
                "metallicFactor" : 0,
                "roughnessFactor" : 0.9524317383766174
            }
        }
    ],
    "meshes" : [
        {
            "name" : "bamboo_tree_Leaf_0",
            "primitives" : [
                {
                    "attributes" : {
                        "POSITION" : 0,
                        "NORMAL" : 1,
                        "TEXCOORD_0" : 2,
                        "TEXCOORD_1" : 3
                    },
                    "indices" : 4,
                    "material" : 0
                }
            ]
        },
        {
            "name" : "bamboo_tree_Leaf_0.001",
            "primitives" : [
                {
                    "attributes" : {
                        "POSITION" : 5,
                        "NORMAL" : 6,
                        "TEXCOORD_0" : 7,
                        "TEXCOORD_1" : 8
                    },
                    "indices" : 9,
                    "material" : 0
                }
            ]
        },
        {
            "name" : "bamboo_tree_Mf_Grass_0",
            "primitives" : [
                {
                    "attributes" : {
                        "POSITION" : 10,
                        "NORMAL" : 11,
                        "TEXCOORD_0" : 12
                    },
                    "indices" : 13,
                    "material" : 1
                }
            ]
        },
        {
            "name" : "bamboo_tree_Trunk_0",
            "primitives" : [
                {
                    "attributes" : {
                        "POSITION" : 14,
                        "NORMAL" : 15,
                        "TEXCOORD_0" : 16,
                        "TEXCOORD_1" : 17,
                        "TEXCOORD_2" : 18
                    },
                    "indices" : 19,
                    "material" : 2
                }
            ]
        }
    ],
    "textures" : [
        {
            "source" : 0
        },
        {
            "source" : 1
        },
        {
            "source" : 2
        },
        {
            "source" : 3
        }
    ],
    "images" : [
        {
            "mimeType" : "image/png",
            "name" : "Leaf_baseColor",
            "uri" : "Leaf_baseColor.png"
        },
        {
            "mimeType" : "image/png",
            "name" : "Mf_Grass_baseColor",
            "uri" : "Mf_Grass_baseColor.png"
        },
        {
            "mimeType" : "image/png",
            "name" : "Trunk_normal",
            "uri" : "Trunk_normal.png"
        },
        {
            "mimeType" : "image/png",
            "name" : "Trunk_baseColor",
            "uri" : "Trunk_baseColor.png"
        }
    ],
    "accessors" : [
        {
            "bufferView" : 0,
            "componentType" : 5126,
            "count" : 65535,
            "max" : [
                154.6553192138672,
                430.5274658203125,
                147.3607177734375
            ],
            "min" : [
                -157.82339477539062,
                183.3174591064453,
                -143.52334594726562
            ],
            "type" : "VEC3"
        },
        {
            "bufferView" : 1,
            "componentType" : 5126,
            "count" : 65535,
            "type" : "VEC3"
        },
        {
            "bufferView" : 2,
            "componentType" : 5126,
            "count" : 65535,
            "type" : "VEC2"
        },
        {
            "bufferView" : 3,
            "componentType" : 5126,
            "count" : 65535,
            "type" : "VEC2"
        },
        {
            "bufferView" : 4,
            "componentType" : 5123,
            "count" : 223869,
            "type" : "SCALAR"
        },
        {
            "bufferView" : 5,
            "componentType" : 5126,
            "count" : 54991,
            "max" : [
                154.6553192138672,
                430.5274658203125,
                147.3607177734375
            ],
            "min" : [
                -157.82339477539062,
                183.3174591064453,
                -143.52334594726562
            ],
            "type" : "VEC3"
        },
        {
            "bufferView" : 6,
            "componentType" : 5126,
            "count" : 54991,
            "type" : "VEC3"
        },
        {
            "bufferView" : 7,
            "componentType" : 5126,
            "count" : 54991,
            "type" : "VEC2"
        },
        {
            "bufferView" : 8,
            "componentType" : 5126,
            "count" : 54991,
            "type" : "VEC2"
        },
        {
            "bufferView" : 9,
            "componentType" : 5123,
            "count" : 127251,
            "type" : "SCALAR"
        },
        {
            "bufferView" : 10,
            "componentType" : 5126,
            "count" : 19340,
            "max" : [
                49.20248031616211,
                53.395076751708984,
                49.17882537841797
            ],
            "min" : [
                -47.64198684692383,
                -0.03573208302259445,
                -50.894378662109375
            ],
            "type" : "VEC3"
        },
        {
            "bufferView" : 11,
            "componentType" : 5126,
            "count" : 19340,
            "type" : "VEC3"
        },
        {
            "bufferView" : 12,
            "componentType" : 5126,
            "count" : 19340,
            "type" : "VEC2"
        },
        {
            "bufferView" : 13,
            "componentType" : 5123,
            "count" : 56367,
            "type" : "SCALAR"
        },
        {
            "bufferView" : 14,
            "componentType" : 5126,
            "count" : 27696,
            "max" : [
                129.92608642578125,
                425.29034423828125,
                115.9522933959961
            ],
            "min" : [
                -122.79891204833984,
                -0.1423647701740265,
                -118.95939636230469
            ],
            "type" : "VEC3"
        },
        {
            "bufferView" : 15,
            "componentType" : 5126,
            "count" : 27696,
            "type" : "VEC3"
        },
        {
            "bufferView" : 16,
            "componentType" : 5126,
            "count" : 27696,
            "type" : "VEC2"
        },
        {
            "bufferView" : 17,
            "componentType" : 5126,
            "count" : 27696,
            "type" : "VEC2"
        },
        {
            "bufferView" : 18,
            "componentType" : 5126,
            "count" : 27696,
            "type" : "VEC2"
        },
        {
            "bufferView" : 19,
            "componentType" : 5123,
            "count" : 127272,
            "type" : "SCALAR"
        }
    ],
    "bufferViews" : [
        {
            "buffer" : 0,
            "byteLength" : 786420,
            "byteOffset" : 0
        },
        {
            "buffer" : 0,
            "byteLength" : 786420,
            "byteOffset" : 786420
        },
        {
            "buffer" : 0,
            "byteLength" : 524280,
            "byteOffset" : 1572840
        },
        {
            "buffer" : 0,
            "byteLength" : 524280,
            "byteOffset" : 2097120
        },
        {
            "buffer" : 0,
            "byteLength" : 447738,
            "byteOffset" : 2621400
        },
        {
            "buffer" : 0,
            "byteLength" : 659892,
            "byteOffset" : 3069140
        },
        {
            "buffer" : 0,
            "byteLength" : 659892,
            "byteOffset" : 3729032
        },
        {
            "buffer" : 0,
            "byteLength" : 439928,
            "byteOffset" : 4388924
        },
        {
            "buffer" : 0,
            "byteLength" : 439928,
            "byteOffset" : 4828852
        },
        {
            "buffer" : 0,
            "byteLength" : 254502,
            "byteOffset" : 5268780
        },
        {
            "buffer" : 0,
            "byteLength" : 232080,
            "byteOffset" : 5523284
        },
        {
            "buffer" : 0,
            "byteLength" : 232080,
            "byteOffset" : 5755364
        },
        {
            "buffer" : 0,
            "byteLength" : 154720,
            "byteOffset" : 5987444
        },
        {
            "buffer" : 0,
            "byteLength" : 112734,
            "byteOffset" : 6142164
        },
        {
            "buffer" : 0,
            "byteLength" : 332352,
            "byteOffset" : 6254900
        },
        {
            "buffer" : 0,
            "byteLength" : 332352,
            "byteOffset" : 6587252
        },
        {
            "buffer" : 0,
            "byteLength" : 221568,
            "byteOffset" : 6919604
        },
        {
            "buffer" : 0,
            "byteLength" : 221568,
            "byteOffset" : 7141172
        },
        {
            "buffer" : 0,
            "byteLength" : 221568,
            "byteOffset" : 7362740
        },
        {
            "buffer" : 0,
            "byteLength" : 254544,
            "byteOffset" : 7584308
        }
    ],
    "buffers" : [
        {
            "byteLength" : 7838852,
            "uri" : "untitled.bin"
        }
    ]
}
