{
  "accessors": [
    {
      "bufferView": 2,
      "componentType": 5126,
      "count": 13002,
      "max": [
        0.3327069878578186,
        1,
        0.33269700407981873
      ],
      "min": [
        -0.3327069878578186,
        -1,
        -0.33269700407981873
      ],
      "type": "VEC3"
    },
    {
      "bufferView": 2,
      "byteOffset": 156024,
      "componentType": 5126,
      "count": 13002,
      "max": [
        1,
        1,
        1
      ],
      "min": [
        -1,
        -1,
        -1
      ],
      "type": "VEC3"
    },
    {
      "bufferView": 3,
      "componentType": 5126,
      "count": 13002,
      "max": [
        1,
        1,
        1,
        1
      ],
      "min": [
        -1,
        -1,
        -1,
        -1
      ],
      "type": "VEC4"
    },
    {
      "bufferView": 1,
      "componentType": 5126,
      "count": 13002,
      "max": [
        0.9980739951133728,
        0.99900001287460327
      ],
      "min": [
        0.0010000000474974513,
        0.0010000000474974513
      ],
      "type": "VEC2"
    },
    {
      "bufferView": 0,
      "componentType": 5125,
      "count": 31026,
      "max": [
        13001
      ],
      "min": [
        0
      ],
      "type": "SCALAR"
    },
    {
      "bufferView": 2,
      "byteOffset": 312048,
      "componentType": 5126,
      "count": 2474,
      "max": [
        -0.23806099593639374,
        -0.062015298753976822,
        0.32892900705337524
      ],
      "min": [
        -0.27619901299476624,
        -0.14743399620056152,
        0.303864985704422
      ],
      "type": "VEC3"
    },
    {
      "bufferView": 2,
      "byteOffset": 341736,
      "componentType": 5126,
      "count": 2474,
      "max": [
        1,
        1,
        1
      ],
      "min": [
        -1,
        -1,
        -1
      ],
      "type": "VEC3"
    },
    {
      "bufferView": 3,
      "byteOffset": 208032,
      "componentType": 5126,
      "count": 2474,
      "max": [
        1,
        1,
        1,
        1
      ],
      "min": [
        -1,
        -1,
        -1,
        1
      ],
      "type": "VEC4"
    },
    {
      "bufferView": 1,
      "byteOffset": 104016,
      "componentType": 5126,
      "count": 2474,
      "max": [
        0.92868399620056152,
        0.99881601333618164
      ],
      "min": [
        0.49658599495887756,
        0.17295800149440765
      ],
      "type": "VEC2"
    },
    {
      "bufferView": 0,
      "byteOffset": 124104,
      "componentType": 5125,
      "count": 11904,
      "max": [
        2473
      ],
      "min": [
        0
      ],
      "type": "SCALAR"
    },
    {
      "bufferView": 2,
      "byteOffset": 371424,
      "componentType": 5126,
      "count": 318,
      "max": [
        0.30527099967002869,
        0.44340300559997559,
        0.30293199419975281
      ],
      "min": [
        -0.30878299474716187,
        -0.65025699138641357,
        -0.18590599298477173
      ],
      "type": "VEC3"
    },
    {
      "bufferView": 2,
      "byteOffset": 375240,
      "componentType": 5126,
      "count": 318,
      "max": [
        1,
        0.7071068286895752,
        1
      ],
      "min": [
        -1,
        -0.7071068286895752,
        -1
      ],
      "type": "VEC3"
    },
    {
      "bufferView": 3,
      "byteOffset": 247616,
      "componentType": 5126,
      "count": 318,
      "max": [
        1,
        0.70710837841033936,
        1,
        1
      ],
      "min": [
        -1,
        -1,
        -1,
        1
      ],
      "type": "VEC4"
    },
    {
      "bufferView": 1,
      "byteOffset": 123808,
      "componentType": 5126,
      "count": 318,
      "max": [
        0.57019102573394775,
        0.79108399152755737
      ],
      "min": [
        0.14373399317264557,
        0.01011779997497797
      ],
      "type": "VEC2"
    },
    {
      "bufferView": 0,
      "byteOffset": 171720,
      "componentType": 5125,
      "count": 1056,
      "max": [
        317
      ],
      "min": [
        0
      ],
      "type": "SCALAR"
    }
  ],
  "asset": {
    "extras": {
      "author": "stovepipe (https://sketchfab.com/stovepipe)",
      "license": "CC-BY-4.0 (http://creativecommons.org/licenses/by/4.0/)",
      "source": "https://sketchfab.com/3d-models/london-phone-booth-b9033372814b421a8fb225990c8f2226",
      "title": "London Phone Booth"
    },
    "generator": "Sketchfab-5.29.0",
    "version": "2.0"
  },
  "bufferViews": [
    {
      "buffer": 0,
      "byteLength": 175944,
      "byteOffset": 0,
      "name": "floatBufferViews",
      "target": 34963
    },
    {
      "buffer": 0,
      "byteLength": 126352,
      "byteOffset": 175944,
      "byteStride": 8,
      "name": "floatBufferViews",
      "target": 34962
    },
    {
      "buffer": 0,
      "byteLength": 379056,
      "byteOffset": 302296,
      "byteStride": 12,
      "name": "floatBufferViews",
      "target": 34962
    },
    {
      "buffer": 0,
      "byteLength": 252704,
      "byteOffset": 681352,
      "byteStride": 16,
      "name": "floatBufferViews",
      "target": 34962
    }
  ],
  "buffers": [
    {
      "byteLength": 934056,
      "uri": "scene.bin"
    }
  ],
  "images": [
    {
      "uri": "textures/Windows_baseColor.png"
    },
    {
      "uri": "textures/Windows_metallicRoughness.png"
    },
    {
      "uri": "textures/Windows_normal.png"
    },
    {
      "uri": "textures/MetalPart_baseColor.png"
    },
    {
      "uri": "textures/MetalPart_metallicRoughness.png"
    },
    {
      "uri": "textures/MetalPart_normal.png"
    },
    {
      "uri": "textures/Red_Part_metallicRoughness.png"
    },
    {
      "uri": "textures/Red_Part_baseColor.jpeg"
    },
    {
      "uri": "textures/Red_Part_normal.png"
    }
  ],
  "materials": [
    {
      "alphaMode": "BLEND",
      "doubleSided": true,
      "name": "Windows",
      "normalTexture": {
        "index": 2,
        "scale": 1,
        "texCoord": 0
      },
      "occlusionTexture": {
        "index": 1,
        "strength": 1,
        "texCoord": 0
      },
      "pbrMetallicRoughness": {
        "baseColorFactor": [
          1,
          1,
          1,
          1
        ],
        "baseColorTexture": {
          "index": 0,
          "texCoord": 0
        },
        "metallicFactor": 1,
        "metallicRoughnessTexture": {
          "index": 1,
          "texCoord": 0
        },
        "roughnessFactor": 1
      }
    },
    {
      "alphaMode": "BLEND",
      "doubleSided": true,
      "name": "MetalPart",
      "normalTexture": {
        "index": 5,
        "scale": 1,
        "texCoord": 0
      },
      "occlusionTexture": {
        "index": 4,
        "strength": 1,
        "texCoord": 0
      },
      "pbrMetallicRoughness": {
        "baseColorFactor": [
          1,
          1,
          1,
          1
        ],
        "baseColorTexture": {
          "index": 3,
          "texCoord": 0
        },
        "metallicFactor": 1,
        "metallicRoughnessTexture": {
          "index": 4,
          "texCoord": 0
        },
        "roughnessFactor": 1
      }
    },
    {
      "doubleSided": true,
      "name": "Red_Part",
      "normalTexture": {
        "index": 8,
        "scale": 1,
        "texCoord": 0
      },
      "occlusionTexture": {
        "index": 6,
        "strength": 1,
        "texCoord": 0
      },
      "pbrMetallicRoughness": {
        "baseColorFactor": [
          1,
          1,
          1,
          1
        ],
        "baseColorTexture": {
          "index": 7,
          "texCoord": 0
        },
        "metallicFactor": 1,
        "metallicRoughnessTexture": {
          "index": 6,
          "texCoord": 0
        },
        "roughnessFactor": 1
      }
    }
  ],
  "meshes": [
    {
      "name": "defaultMaterial",
      "primitives": [
        {
          "attributes": {
            "NORMAL": 1,
            "POSITION": 0,
            "TANGENT": 2,
            "TEXCOORD_0": 3
          },
          "indices": 4,
          "material": 2,
          "mode": 4
        }
      ]
    },
    {
      "name": "defaultMaterial",
      "primitives": [
        {
          "attributes": {
            "NORMAL": 6,
            "POSITION": 5,
            "TANGENT": 7,
            "TEXCOORD_0": 8
          },
          "indices": 9,
          "material": 1,
          "mode": 4
        }
      ]
    },
    {
      "name": "defaultMaterial",
      "primitives": [
        {
          "attributes": {
            "NORMAL": 11,
            "POSITION": 10,
            "TANGENT": 12,
            "TEXCOORD_0": 13
          },
          "indices": 14,
          "material": 0,
          "mode": 4
        }
      ]
    }
  ],
  "nodes": [
    {
      "children": [
        1
      ],
      "name": "RootNode (gltf orientation matrix)",
      "rotation": [
        -0.70710678118654746,
        -0,
        -0,
        0.70710678118654757
      ]
    },
    {
      "children": [
        2
      ],
      "name": "RootNode (model correction matrix)"
    },
    {
      "children": [
        3,
        5,
        7
      ],
      "matrix": [
        1,
        0,
        0,
        0,
        0,
        -4.3711390063094768e-08,
        0.999999999999999,
        0,
        0,
        -0.999999999999999,
        -4.3711390063094768e-08,
        0,
        0,
        0,
        0,
        1
      ],
      "name": "Collada visual scene group"
    },
    {
      "children": [
        4
      ],
      "name": "CompiledPhoneBooth"
    },
    {
      "mesh": 0,
      "name": "defaultMaterial"
    },
    {
      "children": [
        6
      ],
      "name": "CompiledPhoneBooth"
    },
    {
      "mesh": 1,
      "name": "defaultMaterial"
    },
    {
      "children": [
        8
      ],
      "name": "CompiledPhoneBooth"
    },
    {
      "mesh": 2,
      "name": "defaultMaterial"
    }
  ],
  "samplers": [
    {
      "magFilter": 9729,
      "minFilter": 9987,
      "wrapS": 10497,
      "wrapT": 10497
    }
  ],
  "scene": 0,
  "scenes": [
    {
      "name": "OSG_Scene",
      "nodes": [
        0
      ]
    }
  ],
  "textures": [
    {
      "sampler": 0,
      "source": 0
    },
    {
      "sampler": 0,
      "source": 1
    },
    {
      "sampler": 0,
      "source": 2
    },
    {
      "sampler": 0,
      "source": 3
    },
    {
      "sampler": 0,
      "source": 4
    },
    {
      "sampler": 0,
      "source": 5
    },
    {
      "sampler": 0,
      "source": 6
    },
    {
      "sampler": 0,
      "source": 7
    },
    {
      "sampler": 0,
      "source": 8
    }
  ]
}

