{
  "accessors": [
    {
      "bufferView": 1,
      "componentType": 5126,
      "count": 8597,
      "max": [
        2.2795140743255615,
        0.78402084112167358,
        2.2795140743255615
      ],
      "min": [
        -2.2795143127441406,
        -1.0000005960464478,
        -2.2795145511627197
      ],
      "type": "VEC3"
    },
    {
      "bufferView": 1,
      "byteOffset": 103164,
      "componentType": 5126,
      "count": 8597,
      "max": [
        0.99998682737350464,
        1,
        0.99998676776885986
      ],
      "min": [
        -0.99998682737350464,
        -1,
        -0.99998676776885986
      ],
      "type": "VEC3"
    },
    {
      "bufferView": 2,
      "componentType": 5126,
      "count": 8597,
      "max": [
        1,
        0.80007004737854004,
        1,
        1
      ],
      "min": [
        -1,
        -0.80006915330886841,
        -1,
        1
      ],
      "type": "VEC4"
    },
    {
      "bufferView": 0,
      "componentType": 5125,
      "count": 49920,
      "max": [
        8596
      ],
      "min": [
        0
      ],
      "type": "SCALAR"
    },
    {
      "bufferView": 1,
      "byteOffset": 206328,
      "componentType": 5126,
      "count": 1131,
      "max": [
        2.3027229309082031,
        0.80122512578964233,
        2.3027229309082031
      ],
      "min": [
        -2.3027231693267822,
        0.4544752836227417,
        -2.3027236461639404
      ],
      "type": "VEC3"
    },
    {
      "bufferView": 1,
      "byteOffset": 219900,
      "componentType": 5126,
      "count": 1131,
      "max": [
        0.99998277425765991,
        0.98442447185516357,
        0.99998283386230469
      ],
      "min": [
        -0.99998277425765991,
        -0.26492413878440857,
        -0.99998271465301514
      ],
      "type": "VEC3"
    },
    {
      "bufferView": 2,
      "byteOffset": 137552,
      "componentType": 5126,
      "count": 1131,
      "max": [
        1,
        0.96394091844558716,
        1,
        1
      ],
      "min": [
        -1,
        -0.96393901109695435,
        -1,
        1
      ],
      "type": "VEC4"
    },
    {
      "bufferView": 0,
      "byteOffset": 199680,
      "componentType": 5125,
      "count": 5760,
      "max": [
        1130
      ],
      "min": [
        0
      ],
      "type": "SCALAR"
    },
    {
      "bufferView": 1,
      "byteOffset": 233472,
      "componentType": 5126,
      "count": 640,
      "max": [
        2.2709417343139648,
        0.80122512578964233,
        2.2709417343139648
      ],
      "min": [
        -2.2709419727325439,
        -0.042882561683654785,
        -2.2709424495697021
      ],
      "type": "VEC3"
    },
    {
      "bufferView": 1,
      "byteOffset": 241152,
      "componentType": 5126,
      "count": 640,
      "max": [
        0.62536776065826416,
        1,
        0.62536787986755371
      ],
      "min": [
        -0.62536758184432983,
        0.78032994270324707,
        -0.62536811828613281
      ],
      "type": "VEC3"
    },
    {
      "bufferView": 2,
      "byteOffset": 155648,
      "componentType": 5126,
      "count": 640,
      "max": [
        1,
        0.62536770105361938,
        0.32682666182518005,
        1
      ],
      "min": [
        0.78033018112182617,
        -0.62536776065826416,
        -0.32073339819908142,
        1
      ],
      "type": "VEC4"
    },
    {
      "bufferView": 0,
      "byteOffset": 222720,
      "componentType": 5125,
      "count": 2880,
      "max": [
        639
      ],
      "min": [
        0
      ],
      "type": "SCALAR"
    }
  ],
  "asset": {
    "extras": {
      "author": "NiklasG (https://sketchfab.com/NiklasG)",
      "license": "CC-BY-4.0 (http://creativecommons.org/licenses/by/4.0/)",
      "source": "https://sketchfab.com/models/ea4566836f2e45e6ad4571716f7a6c4c",
      "title": "Teatime_bigplate"
    },
    "generator": "Sketchfab-3.20.7",
    "version": "2.0"
  },
  "bufferViews": [
    {
      "buffer": 0,
      "byteLength": 234240,
      "byteOffset": 0,
      "name": "floatBufferViews",
      "target": 34963
    },
    {
      "buffer": 0,
      "byteLength": 248832,
      "byteOffset": 234240,
      "byteStride": 12,
      "name": "floatBufferViews",
      "target": 34962
    },
    {
      "buffer": 0,
      "byteLength": 165888,
      "byteOffset": 483072,
      "byteStride": 16,
      "name": "floatBufferViews",
      "target": 34962
    }
  ],
  "buffers": [
    {
      "byteLength": 648960,
      "uri": "scene.bin"
    }
  ],
  "materials": [
    {
      "doubleSided": true,
      "emissiveFactor": [
        0,
        0,
        0
      ],
      "name": "lambert10",
      "pbrMetallicRoughness": {
        "baseColorFactor": [
          0.442,
          0.235628,
          0.107848,
          1
        ],
        "metallicFactor": 0,
        "roughnessFactor": 0.48608993899999997
      }
    },
    {
      "doubleSided": true,
      "emissiveFactor": [
        0,
        0,
        0
      ],
      "name": "Teatime_qblinn2",
      "pbrMetallicRoughness": {
        "baseColorFactor": [
          0.33900000000000002,
          0.115759,
          0.0064409999999999997,
          1
        ],
        "metallicFactor": 0.36756859759999999,
        "roughnessFactor": 0.28487042679999997
      }
    },
    {
      "doubleSided": true,
      "emissiveFactor": [
        0,
        0,
        0
      ],
      "name": "blinn5",
      "pbrMetallicRoughness": {
        "baseColorFactor": [
          0.107,
          0.011052899999999999,
          0.0075969999999999996,
          1
        ],
        "metallicFactor": 0,
        "roughnessFactor": 0.92355441260000004
      }
    }
  ],
  "meshes": [
    {
      "name": "Teatime_q:pCylinder5_lambert10_0",
      "primitives": [
        {
          "attributes": {
            "NORMAL": 1,
            "POSITION": 0,
            "TANGENT": 2
          },
          "indices": 3,
          "material": 0,
          "mode": 4
        }
      ]
    },
    {
      "name": "Teatime_q:pCylinder5_Teatime_q:blinn2_0",
      "primitives": [
        {
          "attributes": {
            "NORMAL": 5,
            "POSITION": 4,
            "TANGENT": 6
          },
          "indices": 7,
          "material": 1,
          "mode": 4
        }
      ]
    },
    {
      "name": "Teatime_q:pCylinder5_blinn5_0",
      "primitives": [
        {
          "attributes": {
            "NORMAL": 9,
            "POSITION": 8,
            "TANGENT": 10
          },
          "indices": 11,
          "material": 2,
          "mode": 4
        }
      ]
    }
  ],
  "nodes": [
    {
      "children": [
        1
      ],
      "name": "RootNode (gltf orientation matrix)",
      "rotation": [
        -0.70710678118654746,
        -0,
        -0,
        0.70710678118654757
      ]
    },
    {
      "children": [
        2
      ],
      "name": "RootNode (model correction matrix)"
    },
    {
      "children": [
        3
      ],
      "matrix": [
        1,
        0,
        0,
        0,
        0,
        0,
        1,
        0,
        0,
        -1,
        0,
        0,
        0,
        0,
        0,
        1
      ],
      "name": "acf9fe783d7147678363793fb71b485a.fbx"
    },
    {
      "children": [
        4
      ],
      "name": "RootNode"
    },
    {
      "children": [
        5
      ],
      "matrix": [
        1,
        0,
        0,
        0,
        0,
        1,
        0,
        0,
        0,
        0,
        1,
        0,
        0,
        0.023304365575313568,
        0,
        1
      ],
      "name": "Table_group"
    },
    {
      "children": [
        6,
        7,
        8
      ],
      "matrix": [
        1.3150956630706787,
        0,
        0,
        0,
        0,
        0.18361367285251617,
        0,
        0,
        0,
        0,
        1.3150956630706787,
        0,
        0.67987334728240967,
        5.2436280250549316,
        1.9051461219787598,
        1
      ],
      "name": "Teatime_q:pCylinder5"
    },
    {
      "mesh": 0,
      "name": "Teatime_q:pCylinder5_lambert10_0"
    },
    {
      "mesh": 1,
      "name": "Teatime_q:pCylinder5_Teatime_q:blinn2_0"
    },
    {
      "mesh": 2,
      "name": "Teatime_q:pCylinder5_blinn5_0"
    }
  ],
  "scene": 0,
  "scenes": [
    {
      "name": "OSG_Scene",
      "nodes": [
        0
      ]
    }
  ]
}

