{
  "accessors": [
    {
      "bufferView": 2,
      "componentType": 5126,
      "count": 348,
      "max": [
        2.9037292003631592,
        6.1562700271606445,
        3.3196139335632324
      ],
      "min": [
        -2.903728723526001,
        -0.012200941331684589,
        -3.3532397747039795
      ],
      "type": "VEC3"
    },
    {
      "bufferView": 2,
      "byteOffset": 4176,
      "componentType": 5126,
      "count": 348,
      "max": [
        1,
        1,
        1
      ],
      "min": [
        -1,
        -1,
        -1
      ],
      "type": "VEC3"
    },
    {
      "bufferView": 3,
      "componentType": 5126,
      "count": 348,
      "max": [
        1,
        0.9219965934753418,
        1,
        1
      ],
      "min": [
        -1,
        -1,
        -1,
        -1
      ],
      "type": "VEC4"
    },
    {
      "bufferView": 1,
      "componentType": 5126,
      "count": 348,
      "max": [
        1.9203819036483765,
        0.98659294843673706
      ],
      "min": [
        0.018879294395446777,
        0.0065212845802307129
      ],
      "type": "VEC2"
    },
    {
      "bufferView": 0,
      "componentType": 5125,
      "count": 840,
      "max": [
        347
      ],
      "min": [
        0
      ],
      "type": "SCALAR"
    },
    {
      "bufferView": 2,
      "byteOffset": 8352,
      "componentType": 5126,
      "count": 528,
      "max": [
        2.9828629493713379,
        6.1038980484008789,
        3.4271271228790283
      ],
      "min": [
        -2.9828629493713379,
        4.4017195701599121,
        -3.427126407623291
      ],
      "type": "VEC3"
    },
    {
      "bufferView": 2,
      "byteOffset": 14688,
      "componentType": 5126,
      "count": 528,
      "max": [
        1,
        0.96118074655532837,
        0.86876976490020752
      ],
      "min": [
        -1,
        -0.96118074655532837,
        -0.86876964569091797
      ],
      "type": "VEC3"
    },
    {
      "bufferView": 3,
      "byteOffset": 5568,
      "componentType": 5126,
      "count": 528,
      "max": [
        0.95394134521484375,
        0.27661418914794922,
        0.99999880790710449,
        1
      ],
      "min": [
        -0.95394140481948853,
        -0.27699053287506104,
        -0.99999880790710449,
        -1
      ],
      "type": "VEC4"
    },
    {
      "bufferView": 3,
      "byteOffset": 14016,
      "componentType": 5126,
      "count": 528,
      "max": [
        1,
        1,
        1,
        1
      ],
      "min": [
        1,
        1,
        1,
        1
      ],
      "type": "VEC4"
    },
    {
      "bufferView": 1,
      "byteOffset": 2784,
      "componentType": 5126,
      "count": 528,
      "max": [
        1.7563145160675049,
        0.93810266256332397
      ],
      "min": [
        0.0061769485473632812,
        0.023101568222045898
      ],
      "type": "VEC2"
    },
    {
      "bufferView": 0,
      "byteOffset": 3360,
      "componentType": 5125,
      "count": 1872,
      "max": [
        527
      ],
      "min": [
        0
      ],
      "type": "SCALAR"
    }
  ],
  "asset": {
    "extras": {
      "author": "Gott3d (https://sketchfab.com/gott3d)",
      "license": "CC-BY-4.0 (http://creativecommons.org/licenses/by/4.0/)",
      "source": "https://sketchfab.com/3d-models/umbrella-shade-f21a2fe135c14509a7a50ca98b50fc84",
      "title": "Umbrella Shade"
    },
    "generator": "Sketchfab-5.55.0",
    "version": "2.0"
  },
  "bufferViews": [
    {
      "buffer": 0,
      "byteLength": 10848,
      "byteOffset": 0,
      "name": "floatBufferViews",
      "target": 34963
    },
    {
      "buffer": 0,
      "byteLength": 7008,
      "byteOffset": 10848,
      "byteStride": 8,
      "name": "floatBufferViews",
      "target": 34962
    },
    {
      "buffer": 0,
      "byteLength": 21024,
      "byteOffset": 17856,
      "byteStride": 12,
      "name": "floatBufferViews",
      "target": 34962
    },
    {
      "buffer": 0,
      "byteLength": 22464,
      "byteOffset": 38880,
      "byteStride": 16,
      "name": "floatBufferViews",
      "target": 34962
    }
  ],
  "buffers": [
    {
      "byteLength": 61344,
      "uri": "scene.bin"
    }
  ],
  "images": [
    {
      "uri": "textures/Umbrella_Post_baseColor.jpeg"
    }
  ],
  "materials": [
    {
      "doubleSided": false,
      "emissiveFactor": [
        0,
        0,
        0
      ],
      "name": "Umbrella_Post",
      "pbrMetallicRoughness": {
        "baseColorFactor": [
          1,
          1,
          1,
          1
        ],
        "baseColorTexture": {
          "index": 0,
          "texCoord": 0
        },
        "metallicFactor": 0,
        "roughnessFactor": 0.16400000000000001
      }
    },
    {
      "doubleSided": false,
      "emissiveFactor": [
        0,
        0,
        0
      ],
      "name": "Umbrella",
      "pbrMetallicRoughness": {
        "baseColorFactor": [
          0.51903100000000002,
          0.68867900000000004,
          0.120194,
          1
        ],
        "metallicFactor": 0,
        "roughnessFactor": 1
      }
    }
  ],
  "meshes": [
    {
      "primitives": [
        {
          "attributes": {
            "NORMAL": 1,
            "POSITION": 0,
            "TANGENT": 2,
            "TEXCOORD_0": 3
          },
          "indices": 4,
          "material": 0,
          "mode": 4
        }
      ]
    },
    {
      "primitives": [
        {
          "attributes": {
            "COLOR_0": 8,
            "NORMAL": 6,
            "POSITION": 5,
            "TANGENT": 7,
            "TEXCOORD_0": 9
          },
          "indices": 10,
          "material": 1,
          "mode": 4
        }
      ]
    }
  ],
  "nodes": [
    {
      "children": [
        1
      ],
      "name": "RootNode (gltf orientation matrix)",
      "rotation": [
        -0.70710678118654746,
        -0,
        -0,
        0.70710678118654757
      ]
    },
    {
      "children": [
        2
      ],
      "name": "RootNode (model correction matrix)"
    },
    {
      "children": [
        3
      ],
      "name": "root"
    },
    {
      "children": [
        4
      ],
      "matrix": [
        1,
        0,
        0,
        0,
        0,
        2.2204460492503131e-16,
        1,
        0,
        0,
        -1,
        2.2204460492503131e-16,
        0,
        0,
        0,
        0,
        1
      ],
      "name": "GLTF_SceneRootNode"
    },
    {
      "children": [
        5,
        7
      ],
      "matrix": [
        1,
        -0,
        0,
        0,
        0,
        0,
        1.0000002384185791,
        0,
        -0,
        -1.0000002384185791,
        0,
        0,
        0,
        0,
        0,
        1
      ],
      "name": "Umbrella Shade_0"
    },
    {
      "children": [
        6
      ],
      "matrix": [
        0.39370077848434448,
        0,
        0,
        0,
        0,
        -6.637298941457503e-08,
        -0.39370077848433888,
        0,
        0,
        0.39370077848433888,
        -6.637298941457503e-08,
        0,
        -1.2111663671987571e-08,
        0,
        9.6893309375900571e-08,
        1
      ],
      "name": "umbrellaBase_1"
    },
    {
      "mesh": 0,
      "name": ""
    },
    {
      "children": [
        8
      ],
      "matrix": [
        0.39370077848434448,
        0,
        0,
        0,
        0,
        -6.637298941457503e-08,
        -0.39370077848433888,
        0,
        0,
        0.39370077848433888,
        -6.637298941457503e-08,
        0,
        -1.2111663671987571e-08,
        0,
        9.6893309375900571e-08,
        1
      ],
      "name": "umbrellaCloth_2"
    },
    {
      "mesh": 1,
      "name": ""
    }
  ],
  "samplers": [
    {
      "magFilter": 9729,
      "minFilter": 9729,
      "wrapS": 10497,
      "wrapT": 10497
    }
  ],
  "scene": 0,
  "scenes": [
    {
      "name": "OSG_Scene",
      "nodes": [
        0
      ]
    }
  ],
  "textures": [
    {
      "sampler": 0,
      "source": 0
    }
  ]
}

