{
  "accessors": [
    {
      "bufferView": 1,
      "componentType": 5126,
      "count": 1712,
      "max": [
        40.59478759765625,
        57.959621429443359,
        40.594646453857422
      ],
      "min": [
        -40.59478759765625,
        0.36538791656494141,
        -40.594928741455078
      ],
      "type": "VEC3"
    },
    {
      "bufferView": 1,
      "byteOffset": 20544,
      "componentType": 5126,
      "count": 1712,
      "max": [
        1,
        1,
        1
      ],
      "min": [
        -1,
        -1,
        -1
      ],
      "type": "VEC3"
    },
    {
      "bufferView": 2,
      "componentType": 5126,
      "count": 1712,
      "max": [
        1,
        0.73689287900924683,
        1,
        1
      ],
      "min": [
        -1,
        -0.34195616841316223,
        -1,
        1
      ],
      "type": "VEC4"
    },
    {
      "bufferView": 0,
      "componentType": 5125,
      "count": 4056,
      "max": [
        1711
      ],
      "min": [
        0
      ],
      "type": "SCALAR"
    },
    {
      "bufferView": 1,
      "byteOffset": 41088,
      "componentType": 5126,
      "count": 2745,
      "max": [
        45.809833526611328,
        55.2987060546875,
        45.851066589355469
      ],
      "min": [
        -45.861885070800781,
        37.402755737304688,
        -45.850749969482422
      ],
      "type": "VEC3"
    },
    {
      "bufferView": 1,
      "byteOffset": 74028,
      "componentType": 5126,
      "count": 2745,
      "max": [
        0.98858708143234253,
        0.96904081106185913,
        0.99874520301818848
      ],
      "min": [
        -0.99609512090682983,
        -0.96708405017852783,
        -0.99601811170578003
      ],
      "type": "VEC3"
    },
    {
      "bufferView": 2,
      "byteOffset": 27392,
      "componentType": 5126,
      "count": 2745,
      "max": [
        0.99998205900192261,
        0.36841094493865967,
        0.99999183416366577,
        1
      ],
      "min": [
        -0.99999034404754639,
        -0.3854251503944397,
        -0.99982947111129761,
        1
      ],
      "type": "VEC4"
    },
    {
      "bufferView": 0,
      "byteOffset": 16224,
      "componentType": 5125,
      "count": 12600,
      "max": [
        2744
      ],
      "min": [
        0
      ],
      "type": "SCALAR"
    },
    {
      "bufferView": 1,
      "byteOffset": 106968,
      "componentType": 5126,
      "count": 854,
      "max": [
        45.720714569091797,
        54.344463348388672,
        45.756671905517578
      ],
      "min": [
        -45.770835876464844,
        37.901840209960938,
        -45.772174835205078
      ],
      "type": "VEC3"
    },
    {
      "bufferView": 1,
      "byteOffset": 117216,
      "componentType": 5126,
      "count": 854,
      "max": [
        0.4766421914100647,
        0.96904081106185913,
        0.49378612637519836
      ],
      "min": [
        -0.47996330261230469,
        0.85956156253814697,
        -0.46711066365242004
      ],
      "type": "VEC3"
    },
    {
      "bufferView": 2,
      "byteOffset": 71312,
      "componentType": 5126,
      "count": 854,
      "max": [
        0.99996703863143921,
        0.36673322319984436,
        0.99999719858169556,
        1
      ],
      "min": [
        -0.99999713897705078,
        -0.38362333178520203,
        -0.99939125776290894,
        1
      ],
      "type": "VEC4"
    },
    {
      "bufferView": 0,
      "byteOffset": 66624,
      "componentType": 5125,
      "count": 2520,
      "max": [
        853
      ],
      "min": [
        0
      ],
      "type": "SCALAR"
    },
    {
      "bufferView": 1,
      "byteOffset": 127464,
      "componentType": 5126,
      "count": 1632,
      "max": [
        4.8257617950439453,
        55.496395111083984,
        4.8384380340576172
      ],
      "min": [
        -4.8398642539978027,
        54.297805786132812,
        -4.8458890914916992
      ],
      "type": "VEC3"
    },
    {
      "bufferView": 1,
      "byteOffset": 147048,
      "componentType": 5126,
      "count": 1632,
      "max": [
        0.9681965708732605,
        0.99987030029296875,
        0.99139344692230225
      ],
      "min": [
        -0.99359977245330811,
        -0.99964511394500732,
        -0.99886840581893921
      ],
      "type": "VEC3"
    },
    {
      "bufferView": 2,
      "byteOffset": 84976,
      "componentType": 5126,
      "count": 1632,
      "max": [
        0.99999982118606567,
        0.15917640924453735,
        0.99987947940826416,
        1
      ],
      "min": [
        -0.99985921382904053,
        -0.14792861044406891,
        -0.9999922513961792,
        -1
      ],
      "type": "VEC4"
    },
    {
      "bufferView": 0,
      "byteOffset": 76704,
      "componentType": 5125,
      "count": 8400,
      "max": [
        1631
      ],
      "min": [
        0
      ],
      "type": "SCALAR"
    }
  ],
  "asset": {
    "extras": {
      "author": "yacin_cheffai (https://sketchfab.com/yacin_cheffai)",
      "license": "CC-BY-4.0 (http://creativecommons.org/licenses/by/4.0/)",
      "source": "https://sketchfab.com/models/e0c0ad33836d488da98ba8c4f807b1fe",
      "title": "Beach Umbrella"
    },
    "generator": "Sketchfab-3.29.4",
    "version": "2.0"
  },
  "bufferViews": [
    {
      "buffer": 0,
      "byteLength": 110304,
      "byteOffset": 0,
      "name": "floatBufferViews",
      "target": 34963
    },
    {
      "buffer": 0,
      "byteLength": 166632,
      "byteOffset": 110304,
      "byteStride": 12,
      "name": "floatBufferViews",
      "target": 34962
    },
    {
      "buffer": 0,
      "byteLength": 111088,
      "byteOffset": 276936,
      "byteStride": 16,
      "name": "floatBufferViews",
      "target": 34962
    }
  ],
  "buffers": [
    {
      "byteLength": 388024,
      "uri": "scene.bin"
    }
  ],
  "materials": [
    {
      "doubleSided": true,
      "emissiveFactor": [
        0,
        0,
        0
      ],
      "name": "lambert2",
      "pbrMetallicRoughness": {
        "baseColorFactor": [
          0.80000000000000004,
          0.80000000000000004,
          0.80000000000000004,
          1
        ],
        "metallicFactor": 0,
        "roughnessFactor": 0.59999999999999998
      }
    },
    {
      "doubleSided": true,
      "emissiveFactor": [
        0,
        0,
        0
      ],
      "name": "lambert4",
      "pbrMetallicRoughness": {
        "baseColorFactor": [
          0.80000000000000004,
          0.80000000000000004,
          0.80000000000000004,
          1
        ],
        "metallicFactor": 0,
        "roughnessFactor": 0.59999999999999998
      }
    },
    {
      "doubleSided": true,
      "emissiveFactor": [
        0,
        0,
        0
      ],
      "name": "lambert3",
      "pbrMetallicRoughness": {
        "baseColorFactor": [
          0,
          0,
          0.80000000000000004,
          1
        ],
        "metallicFactor": 0,
        "roughnessFactor": 0.59999999999999998
      }
    },
    {
      "doubleSided": true,
      "emissiveFactor": [
        0,
        0,
        0
      ],
      "name": "lambert5",
      "pbrMetallicRoughness": {
        "baseColorFactor": [
          0,
          0.80000000000000004,
          0,
          1
        ],
        "metallicFactor": 0,
        "roughnessFactor": 0.59999999999999998
      }
    }
  ],
  "meshes": [
    {
      "primitives": [
        {
          "attributes": {
            "NORMAL": 1,
            "POSITION": 0,
            "TANGENT": 2
          },
          "indices": 3,
          "material": 0,
          "mode": 4
        }
      ]
    },
    {
      "primitives": [
        {
          "attributes": {
            "NORMAL": 5,
            "POSITION": 4,
            "TANGENT": 6
          },
          "indices": 7,
          "material": 1,
          "mode": 4
        }
      ]
    },
    {
      "primitives": [
        {
          "attributes": {
            "NORMAL": 9,
            "POSITION": 8,
            "TANGENT": 10
          },
          "indices": 11,
          "material": 2,
          "mode": 4
        }
      ]
    },
    {
      "primitives": [
        {
          "attributes": {
            "NORMAL": 13,
            "POSITION": 12,
            "TANGENT": 14
          },
          "indices": 15,
          "material": 3,
          "mode": 4
        }
      ]
    }
  ],
  "nodes": [
    {
      "children": [
        1
      ],
      "name": "RootNode (gltf orientation matrix)",
      "rotation": [
        -0.70710678118654746,
        -0,
        -0,
        0.70710678118654757
      ]
    },
    {
      "children": [
        2
      ],
      "name": "RootNode (model correction matrix)"
    },
    {
      "children": [
        3
      ],
      "matrix": [
        1,
        0,
        0,
        0,
        0,
        0,
        1,
        0,
        0,
        -1,
        0,
        0,
        0,
        0,
        0,
        1
      ],
      "name": "bf5cfe5521fb4dacabd2f4de640bcddb.fbx"
    },
    {
      "children": [
        4,
        5,
        6,
        7
      ],
      "name": "RootNode"
    },
    {
      "mesh": 0,
      "name": ""
    },
    {
      "mesh": 1,
      "name": ""
    },
    {
      "mesh": 2,
      "name": ""
    },
    {
      "mesh": 3,
      "name": ""
    }
  ],
  "scene": 0,
  "scenes": [
    {
      "name": "OSG_Scene",
      "nodes": [
        0
      ]
    }
  ]
}

