{
    "asset" : {
        "generator" : "Khronos glTF Blender I/O v1.2.36",
        "version" : "2.0"
    },
    "scene" : 0,
    "scenes" : [
        {
            "name" : "Scene",
            "nodes" : [
                0
            ]
        }
    ],
    "nodes" : [
        {
            "mesh" : 0,
            "name" : "Node_40",
            "translation" : [
                0,
                0.030820081010460854,
                0
            ]
        }
    ],
    "materials" : [
        {
            "doubleSided" : true,
            "emissiveFactor" : [
                0,
                0,
                0
            ],
            "name" : "Plate2",
            "pbrMetallicRoughness" : {
                "baseColorTexture" : {
                    "index" : 0,
                    "texCoord" : 0
                },
                "metallicFactor" : 0,
                "roughnessFactor" : 0.026105182245373726
            }
        }
    ],
    "meshes" : [
        {
            "name" : "Mesh_18",
            "primitives" : [
                {
                    "attributes" : {
                        "POSITION" : 0,
                        "NORMAL" : 1,
                        "TEXCOORD_0" : 2
                    },
                    "indices" : 3,
                    "material" : 0
                }
            ]
        }
    ],
    "textures" : [
        {
            "source" : 0
        }
    ],
    "images" : [
        {
            "mimeType" : "image/jpeg",
            "name" : "Plate2_baseColor",
            "uri" : "Plate2_baseColor.jpg"
        }
    ],
    "accessors" : [
        {
            "bufferView" : 0,
            "componentType" : 5126,
            "count" : 2584,
            "max" : [
                0.39971089363098145,
                0.04128553718328476,
                0.47357943654060364
            ],
            "min" : [
                -0.39971137046813965,
                -0.023498063907027245,
                -0.47357961535453796
            ],
            "type" : "VEC3"
        },
        {
            "bufferView" : 1,
            "componentType" : 5126,
            "count" : 2584,
            "type" : "VEC3"
        },
        {
            "bufferView" : 2,
            "componentType" : 5126,
            "count" : 2584,
            "type" : "VEC2"
        },
        {
            "bufferView" : 3,
            "componentType" : 5123,
            "count" : 13056,
            "type" : "SCALAR"
        }
    ],
    "bufferViews" : [
        {
            "buffer" : 0,
            "byteLength" : 31008,
            "byteOffset" : 0
        },
        {
            "buffer" : 0,
            "byteLength" : 31008,
            "byteOffset" : 31008
        },
        {
            "buffer" : 0,
            "byteLength" : 20672,
            "byteOffset" : 62016
        },
        {
            "buffer" : 0,
            "byteLength" : 26112,
            "byteOffset" : 82688
        }
    ],
    "buffers" : [
        {
            "byteLength" : 108800,
            "uri" : "untitled.bin"
        }
    ]
}
