{
    "asset" : {
        "generator" : "Khronos glTF Blender I/O v1.2.36",
        "version" : "2.0"
    },
    "scene" : 0,
    "scenes" : [
        {
            "name" : "Scene",
            "nodes" : [
                11
            ]
        }
    ],
    "nodes" : [
        {
            "mesh" : 0,
            "name" : "body_center_0"
        },
        {
            "children" : [
                0
            ],
            "name" : "body",
            "rotation" : [
                0,
                -0.7071068286895752,
                0,
                0.7071068286895752
            ]
        },
        {
            "mesh" : 1,
            "name" : "left_wing_wing_0"
        },
        {
            "children" : [
                2
            ],
            "name" : "left_wing",
            "rotation" : [
                0.5792279839515686,
                -0.4055797755718231,
                -0.5792279839515686,
                -0.4055797755718231
            ],
            "scale" : [
                -1,
                -1,
                -1
            ],
            "translation" : [
                0.00017681329336483032,
                0.162075474858284,
                -0.00270242802798748
            ]
        },
        {
            "mesh" : 2,
            "name" : "right_wing_wing_0"
        },
        {
            "children" : [
                4
            ],
            "name" : "right_wing",
            "rotation" : [
                0.4055797755718231,
                -0.5792279839515686,
                0.4055797755718231,
                0.5792279839515686
            ],
            "translation" : [
                0.00017681329336483032,
                0.162075474858284,
                -0.00270242802798748
            ]
        },
        {
            "children" : [
                1,
                3,
                5
            ],
            "name" : "butterfly",
            "rotation" : [
                -0.0026780073530972004,
                0.9885773062705994,
                0.0176908690482378,
                0.14964881539344788
            ],
            "translation" : [
                -14.968545913696289,
                44.0528450012207,
                -6.727663516998291
            ]
        },
        {
            "children" : [
                6
            ],
            "name" : "RootNode"
        },
        {
            "children" : [
                7
            ],
            "name" : "Node_3"
        },
        {
            "children" : [
                8
            ],
            "name" : "demo.c4d.fbx",
            "rotation" : [
                0.7071068286895752,
                0,
                0,
                0.7071068286895752
            ]
        },
        {
            "children" : [
                9
            ],
            "name" : "RootNode (model correction matrix)",
            "rotation" : [
                0,
                0,
                0.991585910320282,
                0.12945078313350677
            ],
            "translation" : [
                4.641048908233643,
                3.2099530696868896,
                -0.19497796893119812
            ]
        },
        {
            "children" : [
                10
            ],
            "name" : "RootNode (gltf orientation matrix)",
            "rotation" : [
                -0.7071067690849304,
                0,
                0,
                0.7071067690849304
            ]
        }
    ],
    "animations" : [
        {
            "channels" : [
                {
                    "sampler" : 0,
                    "target" : {
                        "node" : 6,
                        "path" : "translation"
                    }
                },
                {
                    "sampler" : 1,
                    "target" : {
                        "node" : 6,
                        "path" : "rotation"
                    }
                },
                {
                    "sampler" : 2,
                    "target" : {
                        "node" : 3,
                        "path" : "rotation"
                    }
                },
                {
                    "sampler" : 3,
                    "target" : {
                        "node" : 5,
                        "path" : "rotation"
                    }
                }
            ],
            "name" : "CINEMA_4D_Main",
            "samplers" : [
                {
                    "input" : 11,
                    "interpolation" : "LINEAR",
                    "output" : 12
                },
                {
                    "input" : 11,
                    "interpolation" : "LINEAR",
                    "output" : 13
                },
                {
                    "input" : 11,
                    "interpolation" : "LINEAR",
                    "output" : 14
                },
                {
                    "input" : 11,
                    "interpolation" : "LINEAR",
                    "output" : 15
                }
            ]
        }
    ],
    "materials" : [
        {
            "doubleSided" : true,
            "emissiveFactor" : [
                0,
                0,
                0
            ],
            "name" : "center",
            "pbrMetallicRoughness" : {
                "baseColorFactor" : [
                    0.016989411786198616,
                    0.01725681871175766,
                    0.01647886633872986,
                    1
                ],
                "metallicFactor" : 0,
                "roughnessFactor" : 0.7919718623161316
            }
        },
        {
            "doubleSided" : true,
            "emissiveFactor" : [
                0,
                0,
                0
            ],
            "name" : "wing",
            "pbrMetallicRoughness" : {
                "baseColorFactor" : [
                    0.9300000071525574,
                    0.9205449819564819,
                    0.3626999855041504,
                    1
                ],
                "metallicFactor" : 0,
                "roughnessFactor" : 0.12620532512664795
            }
        }
    ],
    "meshes" : [
        {
            "name" : "body_center_0",
            "primitives" : [
                {
                    "attributes" : {
                        "POSITION" : 0,
                        "NORMAL" : 1,
                        "TEXCOORD_0" : 2
                    },
                    "indices" : 3,
                    "material" : 0
                }
            ]
        },
        {
            "name" : "left_wing_wing_0",
            "primitives" : [
                {
                    "attributes" : {
                        "POSITION" : 4,
                        "NORMAL" : 5,
                        "TEXCOORD_0" : 6
                    },
                    "indices" : 7,
                    "material" : 1
                }
            ]
        },
        {
            "name" : "right_wing_wing_0",
            "primitives" : [
                {
                    "attributes" : {
                        "POSITION" : 8,
                        "NORMAL" : 9,
                        "TEXCOORD_0" : 10
                    },
                    "indices" : 7,
                    "material" : 1
                }
            ]
        }
    ],
    "accessors" : [
        {
            "bufferView" : 0,
            "componentType" : 5126,
            "count" : 102,
            "max" : [
                0.9294666647911072,
                0.20619654655456543,
                0.20619654655456543
            ],
            "min" : [
                -0.9294666647911072,
                -0.20619654655456543,
                -0.20619654655456543
            ],
            "type" : "VEC3"
        },
        {
            "bufferView" : 1,
            "componentType" : 5126,
            "count" : 102,
            "type" : "VEC3"
        },
        {
            "bufferView" : 2,
            "componentType" : 5126,
            "count" : 102,
            "type" : "VEC2"
        },
        {
            "bufferView" : 3,
            "componentType" : 5123,
            "count" : 384,
            "type" : "SCALAR"
        },
        {
            "bufferView" : 4,
            "componentType" : 5126,
            "count" : 60,
            "max" : [
                1.5464190244674683,
                -5.690659334410621e-18,
                -0.13817495107650757
            ],
            "min" : [
                -1.8686842918395996,
                -4.825035856970139e-11,
                -3.849144458770752
            ],
            "type" : "VEC3"
        },
        {
            "bufferView" : 5,
            "componentType" : 5126,
            "count" : 60,
            "type" : "VEC3"
        },
        {
            "bufferView" : 6,
            "componentType" : 5126,
            "count" : 60,
            "type" : "VEC2"
        },
        {
            "bufferView" : 7,
            "componentType" : 5123,
            "count" : 60,
            "type" : "SCALAR"
        },
        {
            "bufferView" : 8,
            "componentType" : 5126,
            "count" : 60,
            "max" : [
                1.5464190244674683,
                -5.690659334410621e-18,
                -0.13817495107650757
            ],
            "min" : [
                -1.8686842918395996,
                -4.825035856970139e-11,
                -3.849144458770752
            ],
            "type" : "VEC3"
        },
        {
            "bufferView" : 9,
            "componentType" : 5126,
            "count" : 60,
            "type" : "VEC3"
        },
        {
            "bufferView" : 10,
            "componentType" : 5126,
            "count" : 60,
            "type" : "VEC2"
        },
        {
            "bufferView" : 11,
            "componentType" : 5126,
            "count" : 73,
            "max" : [
                3
            ],
            "min" : [
                0
            ],
            "type" : "SCALAR"
        },
        {
            "bufferView" : 12,
            "componentType" : 5126,
            "count" : 73,
            "type" : "VEC3"
        },
        {
            "bufferView" : 13,
            "componentType" : 5126,
            "count" : 73,
            "type" : "VEC4"
        },
        {
            "bufferView" : 14,
            "componentType" : 5126,
            "count" : 73,
            "type" : "VEC4"
        },
        {
            "bufferView" : 15,
            "componentType" : 5126,
            "count" : 73,
            "type" : "VEC4"
        }
    ],
    "bufferViews" : [
        {
            "buffer" : 0,
            "byteLength" : 1224,
            "byteOffset" : 0
        },
        {
            "buffer" : 0,
            "byteLength" : 1224,
            "byteOffset" : 1224
        },
        {
            "buffer" : 0,
            "byteLength" : 816,
            "byteOffset" : 2448
        },
        {
            "buffer" : 0,
            "byteLength" : 768,
            "byteOffset" : 3264
        },
        {
            "buffer" : 0,
            "byteLength" : 720,
            "byteOffset" : 4032
        },
        {
            "buffer" : 0,
            "byteLength" : 720,
            "byteOffset" : 4752
        },
        {
            "buffer" : 0,
            "byteLength" : 480,
            "byteOffset" : 5472
        },
        {
            "buffer" : 0,
            "byteLength" : 120,
            "byteOffset" : 5952
        },
        {
            "buffer" : 0,
            "byteLength" : 720,
            "byteOffset" : 6072
        },
        {
            "buffer" : 0,
            "byteLength" : 720,
            "byteOffset" : 6792
        },
        {
            "buffer" : 0,
            "byteLength" : 480,
            "byteOffset" : 7512
        },
        {
            "buffer" : 0,
            "byteLength" : 292,
            "byteOffset" : 7992
        },
        {
            "buffer" : 0,
            "byteLength" : 876,
            "byteOffset" : 8284
        },
        {
            "buffer" : 0,
            "byteLength" : 1168,
            "byteOffset" : 9160
        },
        {
            "buffer" : 0,
            "byteLength" : 1168,
            "byteOffset" : 10328
        },
        {
            "buffer" : 0,
            "byteLength" : 1168,
            "byteOffset" : 11496
        }
    ],
    "buffers" : [
        {
            "byteLength" : 12664,
            "uri" : "butterfly.bin"
        }
    ]
}
