{
  "accessors": [
    {
      "bufferView": 2,
      "componentType": 5126,
      "count": 4217,
      "max": [
        1.0285176038742065,
        1.1118184328079224,
        2.0500912666320801
      ],
      "min": [
        -1.0285176038742065,
        -1.203071117401123,
        -1.7723101377487183
      ],
      "type": "VEC3"
    },
    {
      "bufferView": 2,
      "byteOffset": 50604,
      "componentType": 5126,
      "count": 4217,
      "max": [
        1,
        1,
        1
      ],
      "min": [
        -1,
        -1,
        -1
      ],
      "type": "VEC3"
    },
    {
      "bufferView": 1,
      "componentType": 5126,
      "count": 4217,
      "max": [
        1.0000001192092896,
        0.80000007152557373
      ],
      "min": [
        0,
        0
      ],
      "type": "VEC2"
    },
    {
      "bufferView": 0,
      "componentType": 5125,
      "count": 24288,
      "max": [
        4216
      ],
      "min": [
        0
      ],
      "type": "SCALAR"
    },
    {
      "bufferView": 2,
      "byteOffset": 101208,
      "componentType": 5126,
      "count": 1141,
      "max": [
        0.80886107683181763,
        0.83202934265136719,
        1.0267931222915649
      ],
      "min": [
        -0.8088611364364624,
        0.057328246533870697,
        -0.71108627319335938
      ],
      "type": "VEC3"
    },
    {
      "bufferView": 2,
      "byteOffset": 114900,
      "componentType": 5126,
      "count": 1141,
      "max": [
        0.94909512996673584,
        0.99999541044235229,
        0.99953991174697876
      ],
      "min": [
        -0.94909572601318359,
        -0.99998056888580322,
        -0.99933469295501709
      ],
      "type": "VEC3"
    },
    {
      "bufferView": 1,
      "byteOffset": 33736,
      "componentType": 5126,
      "count": 1141,
      "max": [
        1.0000001192092896,
        1
      ],
      "min": [
        0,
        0.70000004768371582
      ],
      "type": "VEC2"
    },
    {
      "bufferView": 0,
      "byteOffset": 97152,
      "componentType": 5125,
      "count": 6240,
      "max": [
        1140
      ],
      "min": [
        0
      ],
      "type": "SCALAR"
    },
    {
      "bufferView": 2,
      "byteOffset": 128592,
      "componentType": 5126,
      "count": 3776,
      "max": [
        3.7236156463623047,
        4.0937027931213379,
        -1.3809915781021118
      ],
      "min": [
        -3.723613977432251,
        0.054284092038869858,
        -10.257040977478027
      ],
      "type": "VEC3"
    },
    {
      "bufferView": 2,
      "byteOffset": 173904,
      "componentType": 5126,
      "count": 3776,
      "max": [
        0.99998998641967773,
        1,
        0.99998998641967773
      ],
      "min": [
        -0.99999004602432251,
        -1,
        -0.99998998641967773
      ],
      "type": "VEC3"
    },
    {
      "bufferView": 1,
      "byteOffset": 42864,
      "componentType": 5126,
      "count": 3776,
      "max": [
        1.0000001192092896,
        1
      ],
      "min": [
        0,
        0
      ],
      "type": "VEC2"
    },
    {
      "bufferView": 0,
      "byteOffset": 122112,
      "componentType": 5125,
      "count": 21216,
      "max": [
        3775
      ],
      "min": [
        0
      ],
      "type": "SCALAR"
    },
    {
      "bufferView": 2,
      "byteOffset": 219216,
      "componentType": 5126,
      "count": 2087,
      "max": [
        0.93530887365341187,
        3.6535141468048096,
        0.93469882011413574
      ],
      "min": [
        -0.93530911207199097,
        -0.16564908623695374,
        -0.93469887971878052
      ],
      "type": "VEC3"
    },
    {
      "bufferView": 2,
      "byteOffset": 244260,
      "componentType": 5126,
      "count": 2087,
      "max": [
        0.9997742772102356,
        1,
        0.99977457523345947
      ],
      "min": [
        -0.99977421760559082,
        -1,
        -0.9997745156288147
      ],
      "type": "VEC3"
    },
    {
      "bufferView": 1,
      "byteOffset": 73072,
      "componentType": 5126,
      "count": 2087,
      "max": [
        0.65625,
        0.99235260486602783
      ],
      "min": [
        0.34375,
        0.007647395133972168
      ],
      "type": "VEC2"
    },
    {
      "bufferView": 0,
      "byteOffset": 206976,
      "componentType": 5125,
      "count": 12000,
      "max": [
        2086
      ],
      "min": [
        0
      ],
      "type": "SCALAR"
    }
  ],
  "asset": {
    "extras": {
      "author": "keeganwalden (https://sketchfab.com/keeganwalden)",
      "license": "CC-BY-NC-SA-4.0 (http://creativecommons.org/licenses/by-nc-sa/4.0/)",
      "source": "https://sketchfab.com/3d-models/teapot-and-teacup-with-saucer-394991e9fee141feb7d2498b7665286d",
      "title": "Teapot and Teacup with saucer"
    },
    "generator": "Sketchfab-8.46.0",
    "version": "2.0"
  },
  "bufferViews": [
    {
      "buffer": 0,
      "byteLength": 254976,
      "byteOffset": 0,
      "name": "floatBufferViews",
      "target": 34963
    },
    {
      "buffer": 0,
      "byteLength": 89768,
      "byteOffset": 254976,
      "byteStride": 8,
      "name": "floatBufferViews",
      "target": 34962
    },
    {
      "buffer": 0,
      "byteLength": 269304,
      "byteOffset": 344744,
      "byteStride": 12,
      "name": "floatBufferViews",
      "target": 34962
    }
  ],
  "buffers": [
    {
      "byteLength": 614048,
      "uri": "scene.bin"
    }
  ],
  "materials": [
    {
      "doubleSided": true,
      "name": "ceramic2",
      "pbrMetallicRoughness": {
        "baseColorFactor": [
          0.65497616745763054,
          0.65497616745763054,
          0.65497616745763054,
          1
        ],
        "metallicFactor": 0,
        "roughnessFactor": 0.59999999999999998
      }
    }
  ],
  "meshes": [
    {
      "name": "teapot_ceramic2_0",
      "primitives": [
        {
          "attributes": {
            "NORMAL": 1,
            "POSITION": 0,
            "TEXCOORD_0": 2
          },
          "indices": 3,
          "material": 0,
          "mode": 4
        }
      ]
    },
    {
      "name": "teapot_lid_ceramic2_0",
      "primitives": [
        {
          "attributes": {
            "NORMAL": 5,
            "POSITION": 4,
            "TEXCOORD_0": 6
          },
          "indices": 7,
          "material": 0,
          "mode": 4
        }
      ]
    },
    {
      "name": "cup_ceramic2_0",
      "primitives": [
        {
          "attributes": {
            "NORMAL": 9,
            "POSITION": 8,
            "TEXCOORD_0": 10
          },
          "indices": 11,
          "material": 0,
          "mode": 4
        }
      ]
    },
    {
      "name": "saucer_ceramic2_0",
      "primitives": [
        {
          "attributes": {
            "NORMAL": 13,
            "POSITION": 12,
            "TEXCOORD_0": 14
          },
          "indices": 15,
          "material": 0,
          "mode": 4
        }
      ]
    }
  ],
  "nodes": [
    {
      "children": [
        1
      ],
      "name": "RootNode (gltf orientation matrix)",
      "rotation": [
        -0.70710678118654746,
        -0,
        -0,
        0.70710678118654757
      ]
    },
    {
      "children": [
        2
      ],
      "name": "RootNode (model correction matrix)"
    },
    {
      "children": [
        3
      ],
      "matrix": [
        1,
        0,
        0,
        0,
        0,
        0,
        1,
        0,
        0,
        -1,
        0,
        0,
        0,
        0,
        0,
        1
      ],
      "name": "6bdd636b59fb4dffa07b3745bb0798bc.fbx"
    },
    {
      "children": [
        4,
        8,
        10
      ],
      "name": "RootNode"
    },
    {
      "children": [
        5,
        6
      ],
      "matrix": [
        5.2109565734863281,
        0,
        0,
        0,
        0,
        5.2109565734863281,
        0,
        0,
        0,
        0,
        5.2109565734863281,
        0,
        -0.80707061290740967,
        6.4330306053161621,
        9.3007373809814453,
        1
      ],
      "name": "teapot"
    },
    {
      "mesh": 0,
      "name": "teapot_ceramic2_0"
    },
    {
      "children": [
        7
      ],
      "matrix": [
        0.95348078012466431,
        0,
        0,
        0,
        0,
        -0.90103858782330626,
        -0.31185743749431571,
        0,
        0,
        0.31185743749431571,
        -0.90103858782330626,
        0,
        0.00701874028891325,
        1.158550500869751,
        0.24001529812812805,
        1
      ],
      "name": "teapot_lid"
    },
    {
      "mesh": 1,
      "name": "teapot_lid_ceramic2_0"
    },
    {
      "children": [
        9
      ],
      "matrix": [
        1,
        0,
        0,
        0,
        0,
        1,
        0,
        0,
        0,
        0,
        1,
        0,
        0,
        0.63434582948684692,
        0,
        1
      ],
      "name": "cup"
    },
    {
      "mesh": 2,
      "name": "cup_ceramic2_0"
    },
    {
      "children": [
        11
      ],
      "matrix": [
        5.6860313415527344,
        0,
        0,
        0,
        0,
        0.28308749198913574,
        0,
        0,
        0,
        0,
        5.6860313415527344,
        0,
        0,
        0.3318648636341095,
        -6.5019497871398926,
        1
      ],
      "name": "saucer"
    },
    {
      "mesh": 3,
      "name": "saucer_ceramic2_0"
    }
  ],
  "scene": 0,
  "scenes": [
    {
      "name": "OSG_Scene",
      "nodes": [
        0
      ]
    }
  ]
}

