{
    "asset" : {
        "generator" : "Khronos glTF Blender I/O v1.2.36",
        "version" : "2.0"
    },
    "scene" : 0,
    "scenes" : [
        {
            "name" : "Scene",
            "nodes" : [
                7,
                8,
                9
            ]
        }
    ],
    "nodes" : [
        {
            "mesh" : 0,
            "name" : "Node_4",
            "scale" : [
                1,
                1.5406956672668457,
                1
            ]
        },
        {
            "mesh" : 1,
            "name" : "Node_5",
            "scale" : [
                1,
                1.5406956672668457,
                1
            ]
        },
        {
            "mesh" : 2,
            "name" : "Node_6",
            "scale" : [
                1,
                1.5406956672668457,
                1
            ]
        },
        {
            "mesh" : 3,
            "name" : "Node_7",
            "scale" : [
                1,
                1.5406956672668457,
                1
            ]
        },
        {
            "children" : [
                0,
                1,
                2,
                3
            ],
            "name" : "RootNode"
        },
        {
            "children" : [
                4
            ],
            "name" : "bf5cfe5521fb4dacabd2f4de640bcddb.fbx",
            "rotation" : [
                0.7071068286895752,
                0,
                0,
                0.7071068286895752
            ]
        },
        {
            "children" : [
                5
            ],
            "name" : "RootNode (model correction matrix)"
        },
        {
            "children" : [
                6
            ],
            "name" : "RootNode (gltf orientation matrix)",
            "rotation" : [
                -0.7071067690849304,
                0,
                0,
                0.7071067690849304
            ]
        },
        {
            "name" : "Light",
            "rotation" : [
                0.16907575726509094,
                0.7558803558349609,
                -0.27217137813568115,
                0.570947527885437
            ],
            "translation" : [
                4.076245307922363,
                5.903861999511719,
                -1.0054539442062378
            ]
        },
        {
            "name" : "Camera",
            "rotation" : [
                0.483536034822464,
                0.33687159419059753,
                -0.20870360732078552,
                0.7804827094078064
            ],
            "translation" : [
                7.358891487121582,
                4.958309173583984,
                6.925790786743164
            ]
        }
    ],
    "materials" : [
        {
            "doubleSided" : true,
            "emissiveFactor" : [
                0,
                0,
                0
            ],
            "name" : "lambert2",
            "pbrMetallicRoughness" : {
                "baseColorFactor" : [
                    0.800000011920929,
                    0.800000011920929,
                    0.800000011920929,
                    1
                ],
                "metallicFactor" : 0,
                "roughnessFactor" : 0.6000000238418579
            }
        },
        {
            "doubleSided" : true,
            "emissiveFactor" : [
                0,
                0,
                0
            ],
            "name" : "lambert4",
            "pbrMetallicRoughness" : {
                "baseColorFactor" : [
                    0.800000011920929,
                    0.800000011920929,
                    0.800000011920929,
                    1
                ],
                "metallicFactor" : 0,
                "roughnessFactor" : 0.6000000238418579
            }
        },
        {
            "doubleSided" : true,
            "emissiveFactor" : [
                0,
                0,
                0
            ],
            "name" : "lambert3",
            "pbrMetallicRoughness" : {
                "baseColorFactor" : [
                    0,
                    0,
                    0.800000011920929,
                    1
                ],
                "metallicFactor" : 0,
                "roughnessFactor" : 0.6000000238418579
            }
        },
        {
            "doubleSided" : true,
            "emissiveFactor" : [
                0,
                0,
                0
            ],
            "name" : "lambert5",
            "pbrMetallicRoughness" : {
                "baseColorFactor" : [
                    0,
                    0.800000011920929,
                    0,
                    1
                ],
                "metallicFactor" : 0,
                "roughnessFactor" : 0.6000000238418579
            }
        }
    ],
    "meshes" : [
        {
            "name" : "Mesh_0",
            "primitives" : [
                {
                    "attributes" : {
                        "POSITION" : 0,
                        "NORMAL" : 1
                    },
                    "indices" : 2,
                    "material" : 0
                }
            ]
        },
        {
            "name" : "Mesh_1",
            "primitives" : [
                {
                    "attributes" : {
                        "POSITION" : 3,
                        "NORMAL" : 4
                    },
                    "indices" : 5,
                    "material" : 1
                }
            ]
        },
        {
            "name" : "Mesh_2",
            "primitives" : [
                {
                    "attributes" : {
                        "POSITION" : 6,
                        "NORMAL" : 7
                    },
                    "indices" : 8,
                    "material" : 2
                }
            ]
        },
        {
            "name" : "Mesh_3",
            "primitives" : [
                {
                    "attributes" : {
                        "POSITION" : 9,
                        "NORMAL" : 10
                    },
                    "indices" : 11,
                    "material" : 3
                }
            ]
        }
    ],
    "accessors" : [
        {
            "bufferView" : 0,
            "componentType" : 5126,
            "count" : 2552,
            "max" : [
                40.59478759765625,
                57.95962142944336,
                40.59464645385742
            ],
            "min" : [
                -40.59478759765625,
                0.3653879165649414,
                -40.59492874145508
            ],
            "type" : "VEC3"
        },
        {
            "bufferView" : 1,
            "componentType" : 5126,
            "count" : 2552,
            "type" : "VEC3"
        },
        {
            "bufferView" : 2,
            "componentType" : 5123,
            "count" : 3864,
            "type" : "SCALAR"
        },
        {
            "bufferView" : 3,
            "componentType" : 5126,
            "count" : 2745,
            "max" : [
                45.80983352661133,
                55.2987060546875,
                45.85106658935547
            ],
            "min" : [
                -45.86188507080078,
                37.40275573730469,
                -45.85074996948242
            ],
            "type" : "VEC3"
        },
        {
            "bufferView" : 4,
            "componentType" : 5126,
            "count" : 2745,
            "type" : "VEC3"
        },
        {
            "bufferView" : 5,
            "componentType" : 5123,
            "count" : 12600,
            "type" : "SCALAR"
        },
        {
            "bufferView" : 6,
            "componentType" : 5126,
            "count" : 854,
            "max" : [
                45.7207145690918,
                54.34446334838867,
                45.75667190551758
            ],
            "min" : [
                -45.770835876464844,
                37.90184020996094,
                -45.77217483520508
            ],
            "type" : "VEC3"
        },
        {
            "bufferView" : 7,
            "componentType" : 5126,
            "count" : 854,
            "type" : "VEC3"
        },
        {
            "bufferView" : 8,
            "componentType" : 5123,
            "count" : 2520,
            "type" : "SCALAR"
        },
        {
            "bufferView" : 9,
            "componentType" : 5126,
            "count" : 1632,
            "max" : [
                4.825761795043945,
                55.496395111083984,
                4.838438034057617
            ],
            "min" : [
                -4.839864253997803,
                54.29780578613281,
                -4.845889091491699
            ],
            "type" : "VEC3"
        },
        {
            "bufferView" : 10,
            "componentType" : 5126,
            "count" : 1632,
            "type" : "VEC3"
        },
        {
            "bufferView" : 11,
            "componentType" : 5123,
            "count" : 8400,
            "type" : "SCALAR"
        }
    ],
    "bufferViews" : [
        {
            "buffer" : 0,
            "byteLength" : 30624,
            "byteOffset" : 0
        },
        {
            "buffer" : 0,
            "byteLength" : 30624,
            "byteOffset" : 30624
        },
        {
            "buffer" : 0,
            "byteLength" : 7728,
            "byteOffset" : 61248
        },
        {
            "buffer" : 0,
            "byteLength" : 32940,
            "byteOffset" : 68976
        },
        {
            "buffer" : 0,
            "byteLength" : 32940,
            "byteOffset" : 101916
        },
        {
            "buffer" : 0,
            "byteLength" : 25200,
            "byteOffset" : 134856
        },
        {
            "buffer" : 0,
            "byteLength" : 10248,
            "byteOffset" : 160056
        },
        {
            "buffer" : 0,
            "byteLength" : 10248,
            "byteOffset" : 170304
        },
        {
            "buffer" : 0,
            "byteLength" : 5040,
            "byteOffset" : 180552
        },
        {
            "buffer" : 0,
            "byteLength" : 19584,
            "byteOffset" : 185592
        },
        {
            "buffer" : 0,
            "byteLength" : 19584,
            "byteOffset" : 205176
        },
        {
            "buffer" : 0,
            "byteLength" : 16800,
            "byteOffset" : 224760
        }
    ],
    "buffers" : [
        {
            "byteLength" : 241560,
            "uri" : "umbrella.bin"
        }
    ]
}
