{
  "accessors": [
    {
      "bufferView": 2,
      "componentType": 5126,
      "count": 2123,
      "max": [
        8.2509908676147461,
        8.2406702041625977,
        21.73335075378418
      ],
      "min": [
        -8.2509889602661133,
        -13.946929931640625,
        1.0762410163879395
      ],
      "type": "VEC3"
    },
    {
      "bufferView": 2,
      "byteOffset": 25476,
      "componentType": 5126,
      "count": 2123,
      "max": [
        1,
        1,
        1
      ],
      "min": [
        -1,
        -1,
        -1
      ],
      "type": "VEC3"
    },
    {
      "bufferView": 3,
      "componentType": 5126,
      "count": 2123,
      "max": [
        0.99999338388442993,
        0.99979525804519653,
        0.99731218814849854,
        1
      ],
      "min": [
        -0.99998456239700317,
        -0.99997937679290771,
        -0.99820667505264282,
        -1
      ],
      "type": "VEC4"
    },
    {
      "bufferView": 1,
      "componentType": 5126,
      "count": 2123,
      "max": [
        0.9741700291633606,
        0.99804002046585083
      ],
      "min": [
        0.0019499999471008778,
        0.0019499999471008778
      ],
      "type": "VEC2"
    },
    {
      "bufferView": 0,
      "componentType": 5125,
      "count": 11688,
      "max": [
        2122
      ],
      "min": [
        0
      ],
      "type": "SCALAR"
    },
    {
      "bufferView": 2,
      "byteOffset": 50952,
      "componentType": 5126,
      "count": 441,
      "max": [
        15.022412300109863,
        -12.999221801757812,
        8.3208141326904297
      ],
      "min": [
        9.5795774459838867,
        -18.551164627075195,
        2.50295090675354
      ],
      "type": "VEC3"
    },
    {
      "bufferView": 2,
      "byteOffset": 56244,
      "componentType": 5126,
      "count": 441,
      "max": [
        0.99988967180252075,
        0.2865179181098938,
        0.049372982233762741
      ],
      "min": [
        -0.29800218343734741,
        -0.99739933013916016,
        -0.098320014774799347
      ],
      "type": "VEC3"
    },
    {
      "bufferView": 3,
      "byteOffset": 33968,
      "componentType": 5126,
      "count": 441,
      "max": [
        0.9967961311340332,
        0.99995321035385132,
        0.0092730661854147911,
        1
      ],
      "min": [
        -0.28621315956115723,
        -0.29761022329330444,
        -0.048584051430225372,
        1
      ],
      "type": "VEC4"
    },
    {
      "bufferView": 1,
      "byteOffset": 16984,
      "componentType": 5126,
      "count": 441,
      "max": [
        0.97229498624801636,
        0.95247101783752441
      ],
      "min": [
        0.042105000466108322,
        0.068478003144264221
      ],
      "type": "VEC2"
    },
    {
      "bufferView": 0,
      "byteOffset": 46752,
      "componentType": 5125,
      "count": 2400,
      "max": [
        440
      ],
      "min": [
        0
      ],
      "type": "SCALAR"
    },
    {
      "bufferView": 2,
      "byteOffset": 61536,
      "componentType": 5126,
      "count": 544,
      "max": [
        14.608622550964355,
        -10.255449295043945,
        10.211394309997559
      ],
      "min": [
        6.3935480117797852,
        -18.470859527587891,
        0.56054598093032837
      ],
      "type": "VEC3"
    },
    {
      "bufferView": 2,
      "byteOffset": 68064,
      "componentType": 5126,
      "count": 544,
      "max": [
        0.99947500228881836,
        0.99945688247680664,
        0.99993902444839478
      ],
      "min": [
        -0.99946433305740356,
        -0.99947947263717651,
        -0.99993902444839478
      ],
      "type": "VEC3"
    },
    {
      "bufferView": 3,
      "byteOffset": 41024,
      "componentType": 5126,
      "count": 544,
      "max": [
        0.99982172250747681,
        0.99999558925628662,
        0.52315306663513184,
        1
      ],
      "min": [
        -0.99991929531097412,
        -0.9993206262588501,
        -0.99997901916503906,
        1
      ],
      "type": "VEC4"
    },
    {
      "bufferView": 1,
      "byteOffset": 20512,
      "componentType": 5126,
      "count": 544,
      "max": [
        0.88971000909805298,
        0.99804002046585083
      ],
      "min": [
        0.0019499999471008778,
        0.0019499999471008778
      ],
      "type": "VEC2"
    },
    {
      "bufferView": 0,
      "byteOffset": 56352,
      "componentType": 5125,
      "count": 3072,
      "max": [
        543
      ],
      "min": [
        0
      ],
      "type": "SCALAR"
    },
    {
      "bufferView": 2,
      "byteOffset": 74592,
      "componentType": 5126,
      "count": 384,
      "max": [
        18.843984603881836,
        11.049386978149414,
        0.62494200468063354
      ],
      "min": [
        -12.187849044799805,
        -36.255661010742188,
        -2.375852108001709
      ],
      "type": "VEC3"
    },
    {
      "bufferView": 2,
      "byteOffset": 79200,
      "componentType": 5126,
      "count": 384,
      "max": [
        1,
        1,
        1
      ],
      "min": [
        -1,
        -1,
        -1
      ],
      "type": "VEC3"
    },
    {
      "bufferView": 3,
      "byteOffset": 49728,
      "componentType": 5126,
      "count": 384,
      "max": [
        1,
        0.70710629224777222,
        1,
        1
      ],
      "min": [
        -1,
        -0.70710617303848267,
        -1,
        1
      ],
      "type": "VEC4"
    },
    {
      "bufferView": 1,
      "byteOffset": 24864,
      "componentType": 5126,
      "count": 384,
      "max": [
        0.59738302230834961,
        0.99800801277160645
      ],
      "min": [
        0.0011919999960809946,
        0.0019920000340789557
      ],
      "type": "VEC2"
    },
    {
      "bufferView": 0,
      "byteOffset": 68640,
      "componentType": 5125,
      "count": 528,
      "max": [
        383
      ],
      "min": [
        0
      ],
      "type": "SCALAR"
    },
    {
      "bufferView": 2,
      "byteOffset": 83808,
      "componentType": 5126,
      "count": 731,
      "max": [
        5.0877737998962402,
        -15.052061080932617,
        8.3031139373779297
      ],
      "min": [
        -4.3394780158996582,
        -25.113365173339844,
        0.44307801127433777
      ],
      "type": "VEC3"
    },
    {
      "bufferView": 2,
      "byteOffset": 92580,
      "componentType": 5126,
      "count": 731,
      "max": [
        0.99663662910461426,
        0.99663662910461426,
        1
      ],
      "min": [
        -0.99663686752319336,
        -0.99663674831390381,
        -1
      ],
      "type": "VEC3"
    },
    {
      "bufferView": 3,
      "byteOffset": 55872,
      "componentType": 5126,
      "count": 731,
      "max": [
        0.996468186378479,
        0.99931561946868896,
        0.99966889619827271,
        1
      ],
      "min": [
        -0.99972701072692871,
        -0.99606698751449585,
        -0.9999624490737915,
        -1
      ],
      "type": "VEC4"
    },
    {
      "bufferView": 1,
      "byteOffset": 27936,
      "componentType": 5126,
      "count": 731,
      "max": [
        0.81203997135162354,
        0.99804002046585083
      ],
      "min": [
        0.0019499999471008778,
        0.0019499999471008778
      ],
      "type": "VEC2"
    },
    {
      "bufferView": 0,
      "byteOffset": 70752,
      "componentType": 5125,
      "count": 4056,
      "max": [
        730
      ],
      "min": [
        0
      ],
      "type": "SCALAR"
    }
  ],
  "asset": {
    "extras": {
      "author": "milamila (https://sketchfab.com/milamila)",
      "license": "CC-BY-4.0 (http://creativecommons.org/licenses/by/4.0/)",
      "source": "https://sketchfab.com/models/d2b228e88f3c4b7d8634e60077e89ee3",
      "title": "Tea Time"
    },
    "generator": "Sketchfab-3.20.7",
    "version": "2.0"
  },
  "bufferViews": [
    {
      "buffer": 0,
      "byteLength": 86976,
      "byteOffset": 0,
      "name": "floatBufferViews",
      "target": 34963
    },
    {
      "buffer": 0,
      "byteLength": 33784,
      "byteOffset": 86976,
      "byteStride": 8,
      "name": "floatBufferViews",
      "target": 34962
    },
    {
      "buffer": 0,
      "byteLength": 101352,
      "byteOffset": 120760,
      "byteStride": 12,
      "name": "floatBufferViews",
      "target": 34962
    },
    {
      "buffer": 0,
      "byteLength": 67568,
      "byteOffset": 222112,
      "byteStride": 16,
      "name": "floatBufferViews",
      "target": 34962
    }
  ],
  "buffers": [
    {
      "byteLength": 289680,
      "uri": "scene.bin"
    }
  ],
  "images": [
    {
      "uri": "textures/blinn2SG_metallicRoughness.png"
    },
    {
      "uri": "textures/blinn2SG_normal.jpg"
    },
    {
      "uri": "textures/blinn2SG_baseColor.jpg"
    },
    {
      "uri": "textures/blinn9SG_baseColor.jpg"
    },
    {
      "uri": "textures/blinn6SG_baseColor.jpg"
    },
    {
      "uri": "textures/blinn1SG_metallicRoughness.png"
    },
    {
      "uri": "textures/blinn1SG_normal.jpg"
    },
    {
      "uri": "textures/blinn1SG_baseColor.jpg"
    },
    {
      "uri": "textures/lambert2SG_metallicRoughness.png"
    },
    {
      "uri": "textures/lambert2SG_normal.jpg"
    },
    {
      "uri": "textures/lambert2SG_baseColor.jpg"
    }
  ],
  "materials": [
    {
      "doubleSided": true,
      "emissiveFactor": [
        0,
        0,
        0
      ],
      "name": "blinn1SG",
      "normalTexture": {
        "index": 6,
        "scale": 1,
        "texCoord": 0
      },
      "occlusionTexture": {
        "index": 5,
        "strength": 0.7334222561,
        "texCoord": 0
      },
      "pbrMetallicRoughness": {
        "baseColorFactor": [
          1,
          1,
          1,
          1
        ],
        "baseColorTexture": {
          "index": 7,
          "texCoord": 0
        },
        "metallicFactor": 0.12976371950000001,
        "metallicRoughnessTexture": {
          "index": 5,
          "texCoord": 0
        },
        "roughnessFactor": 0.39195884149999999
      }
    },
    {
      "doubleSided": true,
      "emissiveFactor": [
        0,
        0,
        0
      ],
      "name": "blinn2SG",
      "normalTexture": {
        "index": 1,
        "scale": 1,
        "texCoord": 0
      },
      "occlusionTexture": {
        "index": 0,
        "strength": 0.91025152440000001,
        "texCoord": 0
      },
      "pbrMetallicRoughness": {
        "baseColorFactor": [
          1,
          1,
          1,
          1
        ],
        "baseColorTexture": {
          "index": 2,
          "texCoord": 0
        },
        "metallicFactor": 0,
        "roughnessFactor": 0.40000000000000002
      }
    },
    {
      "doubleSided": true,
      "emissiveFactor": [
        0,
        0,
        0
      ],
      "name": "blinn6SG",
      "pbrMetallicRoughness": {
        "baseColorFactor": [
          1,
          1,
          1,
          1
        ],
        "baseColorTexture": {
          "index": 4,
          "texCoord": 0
        },
        "metallicFactor": 0,
        "roughnessFactor": 0.59999999999999998
      }
    },
    {
      "doubleSided": true,
      "emissiveFactor": [
        0,
        0,
        0
      ],
      "name": "blinn9SG",
      "pbrMetallicRoughness": {
        "baseColorFactor": [
          1,
          1,
          1,
          1
        ],
        "baseColorTexture": {
          "index": 3,
          "texCoord": 0
        },
        "metallicFactor": 0.087080792700000006,
        "roughnessFactor": 0.28487042679999997
      }
    },
    {
      "doubleSided": true,
      "emissiveFactor": [
        0,
        0,
        0
      ],
      "name": "lambert2SG",
      "normalTexture": {
        "index": 9,
        "scale": 0.89805640239999995,
        "texCoord": 0
      },
      "occlusionTexture": {
        "index": 8,
        "strength": 0.55659298779999999,
        "texCoord": 0
      },
      "pbrMetallicRoughness": {
        "baseColorFactor": [
          1,
          1,
          1,
          1
        ],
        "baseColorTexture": {
          "index": 10,
          "texCoord": 0
        },
        "metallicFactor": 0,
        "roughnessFactor": 0.64805640239999995
      }
    }
  ],
  "meshes": [
    {
      "primitives": [
        {
          "attributes": {
            "NORMAL": 1,
            "POSITION": 0,
            "TANGENT": 2,
            "TEXCOORD_0": 3
          },
          "indices": 4,
          "material": 1,
          "mode": 4
        }
      ]
    },
    {
      "primitives": [
        {
          "attributes": {
            "NORMAL": 6,
            "POSITION": 5,
            "TANGENT": 7,
            "TEXCOORD_0": 8
          },
          "indices": 9,
          "material": 2,
          "mode": 4
        }
      ]
    },
    {
      "primitives": [
        {
          "attributes": {
            "NORMAL": 11,
            "POSITION": 10,
            "TANGENT": 12,
            "TEXCOORD_0": 13
          },
          "indices": 14,
          "material": 3,
          "mode": 4
        }
      ]
    },
    {
      "primitives": [
        {
          "attributes": {
            "NORMAL": 16,
            "POSITION": 15,
            "TANGENT": 17,
            "TEXCOORD_0": 18
          },
          "indices": 19,
          "material": 4,
          "mode": 4
        }
      ]
    },
    {
      "primitives": [
        {
          "attributes": {
            "NORMAL": 21,
            "POSITION": 20,
            "TANGENT": 22,
            "TEXCOORD_0": 23
          },
          "indices": 24,
          "material": 0,
          "mode": 4
        }
      ]
    }
  ],
  "nodes": [
    {
      "children": [
        1
      ],
      "name": "RootNode (gltf orientation matrix)",
      "rotation": [
        -0.70710678118654746,
        -0,
        -0,
        0.70710678118654757
      ]
    },
    {
      "children": [
        2
      ],
      "name": "RootNode (model correction matrix)"
    },
    {
      "children": [
        3,
        4,
        5,
        6,
        7
      ],
      "name": "TeaTime.obj.cleaner.materialmerger.gles"
    },
    {
      "mesh": 0,
      "name": ""
    },
    {
      "mesh": 1,
      "name": ""
    },
    {
      "mesh": 2,
      "name": ""
    },
    {
      "mesh": 3,
      "name": ""
    },
    {
      "mesh": 4,
      "name": ""
    }
  ],
  "samplers": [
    {
      "magFilter": 9729,
      "minFilter": 9987,
      "wrapS": 10497,
      "wrapT": 10497
    }
  ],
  "scene": 0,
  "scenes": [
    {
      "name": "OSG_Scene",
      "nodes": [
        0
      ]
    }
  ],
  "textures": [
    {
      "sampler": 0,
      "source": 0
    },
    {
      "sampler": 0,
      "source": 1
    },
    {
      "sampler": 0,
      "source": 2
    },
    {
      "sampler": 0,
      "source": 3
    },
    {
      "sampler": 0,
      "source": 4
    },
    {
      "sampler": 0,
      "source": 5
    },
    {
      "sampler": 0,
      "source": 6
    },
    {
      "sampler": 0,
      "source": 7
    },
    {
      "sampler": 0,
      "source": 8
    },
    {
      "sampler": 0,
      "source": 9
    },
    {
      "sampler": 0,
      "source": 10
    }
  ]
}

